<svg width="150" height="150" viewBox="0 0 150 150" fill="none" xmlns="http://www.w3.org/2000/svg">
<path d="M101.973 96.2212L106.505 48.1692H13.3223L17.8543 96.2212H101.973Z" fill="#A9E3F8"/>
<path d="M106.789 143.98H13.0383C11.861 143.98 10.8756 143.085 10.7649 141.912L1.01029 38.4973C0.891623 37.2413 1.81295 36.128 3.06895 36.0093C4.33162 35.9 5.43694 36.8133 5.5556 38.068L15.1156 139.416H104.712L114.272 38.068C114.39 36.8133 115.496 35.8973 116.758 36.0093C118.013 36.128 118.936 37.2413 118.817 38.4973L109.061 141.912C108.95 143.085 107.966 143.98 106.789 143.98Z" fill="#2F1514"/>
<path d="M17.8542 96.2212L21.3476 133.252H98.4783L101.973 96.2212H17.8542Z" fill="#2F1514"/>
<path d="M146.481 68.3906C143.92 64.0039 139.412 61.1719 133.444 60.2013C127.609 59.2533 121.285 60.3026 114.377 63.3573C114.062 68.3093 113.67 73.9839 113.194 79.9733C117.801 76.8253 122.958 74.0732 127.949 73.2825C129.597 73.0212 130.836 73.2253 131.641 73.8853C132.616 74.6813 133.068 76.1746 132.821 77.7812C132.329 80.9772 129.586 84.1933 126.82 87.2133C122.548 91.8759 117.265 96.1159 111.382 99.6652C110.765 105.448 110.07 111.12 109.293 116.344C111.341 115.405 113.332 114.418 115.23 113.432C123.5 109.136 138.492 99.9439 146.012 86.6399C149.336 80.7599 149.521 73.5959 146.481 68.3906Z" fill="#2F1514"/>
<path d="M31.423 116.598V108.598H36.8136V109.993H33.1144V111.899H36.5363V113.293H33.1144V115.203H36.8292V116.598H31.423ZM42.4982 110.899C42.4669 110.584 42.3328 110.339 42.0958 110.164C41.8588 109.99 41.5372 109.903 41.131 109.903C40.8549 109.903 40.6219 109.942 40.4318 110.02C40.2417 110.095 40.0958 110.201 39.9943 110.336C39.8953 110.472 39.8458 110.625 39.8458 110.797C39.8406 110.94 39.8706 111.065 39.9357 111.172C40.0034 111.279 40.0958 111.371 40.213 111.45C40.3302 111.525 40.4656 111.592 40.6193 111.649C40.7729 111.703 40.937 111.75 41.1115 111.789L41.8302 111.961C42.1792 112.039 42.4995 112.144 42.7911 112.274C43.0828 112.404 43.3354 112.564 43.549 112.754C43.7625 112.944 43.9279 113.168 44.045 113.426C44.1648 113.684 44.226 113.98 44.2286 114.313C44.226 114.802 44.101 115.227 43.8536 115.586C43.6088 115.943 43.2547 116.22 42.7911 116.418C42.3302 116.614 41.7742 116.711 41.1232 116.711C40.4773 116.711 39.9148 116.612 39.4357 116.414C38.9591 116.217 38.5867 115.924 38.3185 115.536C38.0529 115.145 37.9135 114.662 37.9005 114.086H39.5372C39.5555 114.355 39.6323 114.578 39.7677 114.758C39.9057 114.935 40.0893 115.069 40.3185 115.161C40.5503 115.249 40.812 115.293 41.1036 115.293C41.3901 115.293 41.6388 115.252 41.8497 115.168C42.0633 115.085 42.2286 114.969 42.3458 114.821C42.463 114.672 42.5216 114.502 42.5216 114.309C42.5216 114.129 42.4682 113.978 42.3615 113.856C42.2573 113.733 42.1036 113.629 41.9005 113.543C41.7 113.457 41.4539 113.379 41.1622 113.309L40.2911 113.09C39.6167 112.926 39.0841 112.67 38.6935 112.321C38.3029 111.972 38.1088 111.502 38.1115 110.911C38.1088 110.426 38.2378 110.003 38.4982 109.641C38.7612 109.279 39.1219 108.996 39.5802 108.793C40.0385 108.59 40.5594 108.489 41.1427 108.489C41.7365 108.489 42.2547 108.59 42.6974 108.793C43.1427 108.996 43.4891 109.279 43.7365 109.641C43.9838 110.003 44.1115 110.422 44.1193 110.899H42.4982ZM45.3663 116.598V108.598H48.5226C49.1294 108.598 49.6463 108.714 50.0734 108.946C50.5004 109.175 50.826 109.494 51.0499 109.903C51.2765 110.309 51.3898 110.778 51.3898 111.309C51.3898 111.84 51.2752 112.309 51.046 112.715C50.8169 113.121 50.4848 113.438 50.0499 113.664C49.6176 113.891 49.0942 114.004 48.4796 114.004H46.4679V112.649H48.2062C48.5317 112.649 48.7999 112.593 49.0109 112.481C49.2244 112.366 49.3833 112.209 49.4874 112.008C49.5942 111.805 49.6476 111.572 49.6476 111.309C49.6476 111.043 49.5942 110.812 49.4874 110.614C49.3833 110.413 49.2244 110.258 49.0109 110.149C48.7973 110.037 48.5265 109.981 48.1984 109.981H47.0577V116.598H45.3663ZM52.4884 116.598V108.598H55.6447C56.2488 108.598 56.7644 108.706 57.1915 108.922C57.6212 109.136 57.948 109.439 58.172 109.832C58.3986 110.223 58.5118 110.683 58.5118 111.211C58.5118 111.743 58.3973 112.2 58.1681 112.582C57.9389 112.963 57.6069 113.254 57.172 113.457C56.7397 113.661 56.2163 113.762 55.6017 113.762H53.4884V112.403H55.3282C55.6512 112.403 55.9194 112.358 56.1329 112.27C56.3465 112.181 56.5053 112.049 56.6095 111.871C56.7163 111.694 56.7697 111.474 56.7697 111.211C56.7697 110.946 56.7163 110.722 56.6095 110.539C56.5053 110.357 56.3452 110.219 56.129 110.125C55.9155 110.029 55.646 109.981 55.3204 109.981H54.1798V116.598H52.4884ZM56.8087 112.957L58.797 116.598H56.9298L54.9845 112.957H56.8087ZM59.7072 116.598V108.598H65.0978V109.993H61.3986V111.899H64.8204V113.293H61.3986V115.203H65.1134V116.598H59.7072ZM70.7823 110.899C70.7511 110.584 70.617 110.339 70.38 110.164C70.143 109.99 69.8214 109.903 69.4152 109.903C69.1391 109.903 68.906 109.942 68.7159 110.02C68.5258 110.095 68.38 110.201 68.2784 110.336C68.1795 110.472 68.13 110.625 68.13 110.797C68.1248 110.94 68.1547 111.065 68.2198 111.172C68.2876 111.279 68.38 111.371 68.4972 111.45C68.6144 111.525 68.7498 111.592 68.9034 111.649C69.0571 111.703 69.2212 111.75 69.3956 111.789L70.1144 111.961C70.4633 112.039 70.7837 112.144 71.0753 112.274C71.367 112.404 71.6196 112.564 71.8331 112.754C72.0467 112.944 72.212 113.168 72.3292 113.426C72.449 113.684 72.5102 113.98 72.5128 114.313C72.5102 114.802 72.3852 115.227 72.1378 115.586C71.893 115.943 71.5389 116.22 71.0753 116.418C70.6144 116.614 70.0584 116.711 69.4073 116.711C68.7615 116.711 68.199 116.612 67.7198 116.414C67.2433 116.217 66.8709 115.924 66.6027 115.536C66.337 115.145 66.1977 114.662 66.1847 114.086H67.8214C67.8396 114.355 67.9165 114.578 68.0519 114.758C68.1899 114.935 68.3735 115.069 68.6027 115.161C68.8344 115.249 69.0962 115.293 69.3878 115.293C69.6743 115.293 69.923 115.252 70.1339 115.168C70.3475 115.085 70.5128 114.969 70.63 114.821C70.7472 114.672 70.8058 114.502 70.8058 114.309C70.8058 114.129 70.7524 113.978 70.6456 113.856C70.5415 113.733 70.3878 113.629 70.1847 113.543C69.9842 113.457 69.7381 113.379 69.4464 113.309L68.5753 113.09C67.9008 112.926 67.3683 112.67 66.9777 112.321C66.587 111.972 66.393 111.502 66.3956 110.911C66.393 110.426 66.5219 110.003 66.7823 109.641C67.0454 109.279 67.406 108.996 67.8644 108.793C68.3227 108.59 68.8435 108.489 69.4269 108.489C70.0206 108.489 70.5389 108.59 70.9816 108.793C71.4269 108.996 71.7732 109.279 72.0206 109.641C72.268 110.003 72.3956 110.422 72.4034 110.899H70.7823ZM77.9904 110.899C77.9591 110.584 77.825 110.339 77.588 110.164C77.351 109.99 77.0294 109.903 76.6232 109.903C76.3471 109.903 76.1141 109.942 75.924 110.02C75.7338 110.095 75.588 110.201 75.4865 110.336C75.3875 110.472 75.338 110.625 75.338 110.797C75.3328 110.94 75.3628 111.065 75.4279 111.172C75.4956 111.279 75.588 111.371 75.7052 111.45C75.8224 111.525 75.9578 111.592 76.1115 111.649C76.2651 111.703 76.4292 111.75 76.6036 111.789L77.3224 111.961C77.6713 112.039 77.9917 112.144 78.2833 112.274C78.575 112.404 78.8276 112.564 79.0411 112.754C79.2547 112.944 79.42 113.168 79.5372 113.426C79.657 113.684 79.7182 113.98 79.7208 114.313C79.7182 114.802 79.5932 115.227 79.3458 115.586C79.101 115.943 78.7469 116.22 78.2833 116.418C77.8224 116.614 77.2664 116.711 76.6154 116.711C75.9695 116.711 75.407 116.612 74.9279 116.414C74.4513 116.217 74.0789 115.924 73.8107 115.536C73.545 115.145 73.4057 114.662 73.3927 114.086H75.0294C75.0476 114.355 75.1245 114.578 75.2599 114.758C75.3979 114.935 75.5815 115.069 75.8107 115.161C76.0424 115.249 76.3042 115.293 76.5958 115.293C76.8823 115.293 77.131 115.252 77.3419 115.168C77.5555 115.085 77.7208 114.969 77.838 114.821C77.9552 114.672 78.0138 114.502 78.0138 114.309C78.0138 114.129 77.9604 113.978 77.8536 113.856C77.7495 113.733 77.5958 113.629 77.3927 113.543C77.1922 113.457 76.9461 113.379 76.6544 113.309L75.7833 113.09C75.1088 112.926 74.5763 112.67 74.1857 112.321C73.795 111.972 73.601 111.502 73.6036 110.911C73.601 110.426 73.7299 110.003 73.9904 109.641C74.2534 109.279 74.6141 108.996 75.0724 108.793C75.5307 108.59 76.0516 108.489 76.6349 108.489C77.2286 108.489 77.7469 108.59 78.1896 108.793C78.6349 108.996 78.9812 109.279 79.2286 109.641C79.476 110.003 79.6036 110.422 79.6115 110.899H77.9904ZM88.2101 112.598C88.2101 113.47 88.0447 114.213 87.714 114.825C87.3859 115.437 86.9379 115.904 86.3702 116.227C85.8051 116.547 85.1697 116.707 84.464 116.707C83.7531 116.707 83.115 116.546 82.5499 116.223C81.9848 115.9 81.5382 115.433 81.2101 114.821C80.882 114.209 80.7179 113.468 80.7179 112.598C80.7179 111.726 80.882 110.983 81.2101 110.371C81.5382 109.759 81.9848 109.293 82.5499 108.973C83.115 108.65 83.7531 108.489 84.464 108.489C85.1697 108.489 85.8051 108.65 86.3702 108.973C86.9379 109.293 87.3859 109.759 87.714 110.371C88.0447 110.983 88.2101 111.726 88.2101 112.598ZM86.4952 112.598C86.4952 112.033 86.4106 111.556 86.2413 111.168C86.0747 110.78 85.839 110.486 85.5343 110.286C85.2296 110.085 84.8728 109.985 84.464 109.985C84.0551 109.985 83.6984 110.085 83.3937 110.286C83.089 110.486 82.852 110.78 82.6827 111.168C82.5161 111.556 82.4327 112.033 82.4327 112.598C82.4327 113.163 82.5161 113.64 82.6827 114.028C82.852 114.416 83.089 114.71 83.3937 114.911C83.6984 115.111 84.0551 115.211 84.464 115.211C84.8728 115.211 85.2296 115.111 85.5343 114.911C85.839 114.71 86.0747 114.416 86.2413 114.028C86.4106 113.64 86.4952 113.163 86.4952 112.598Z" fill="white"/>
<path d="M28.2339 74.3672V66.3672H29.9253V69.668H33.3589V66.3672H35.0464V74.3672H33.3589V71.0625H29.9253V74.3672H28.2339ZM43.7925 70.3672C43.7925 71.2396 43.6271 71.9818 43.2964 72.5937C42.9683 73.2057 42.5203 73.6732 41.9526 73.9961C41.3875 74.3164 40.7521 74.4766 40.0464 74.4766C39.3354 74.4766 38.6974 74.3151 38.1323 73.9922C37.5672 73.6693 37.1206 73.2018 36.7925 72.5898C36.4644 71.9779 36.3003 71.237 36.3003 70.3672C36.3003 69.4948 36.4644 68.7526 36.7925 68.1406C37.1206 67.5286 37.5672 67.0625 38.1323 66.7422C38.6974 66.4193 39.3354 66.2578 40.0464 66.2578C40.7521 66.2578 41.3875 66.4193 41.9526 66.7422C42.5203 67.0625 42.9683 67.5286 43.2964 68.1406C43.6271 68.7526 43.7925 69.4948 43.7925 70.3672ZM42.0776 70.3672C42.0776 69.8021 41.993 69.3255 41.8237 68.9375C41.6571 68.5495 41.4214 68.2552 41.1167 68.0547C40.812 67.8542 40.4552 67.7539 40.0464 67.7539C39.6375 67.7539 39.2808 67.8542 38.9761 68.0547C38.6714 68.2552 38.4344 68.5495 38.2651 68.9375C38.0985 69.3255 38.0151 69.8021 38.0151 70.3672C38.0151 70.9323 38.0985 71.4089 38.2651 71.7969C38.4344 72.1849 38.6714 72.4792 38.9761 72.6797C39.2808 72.8802 39.6375 72.9805 40.0464 72.9805C40.4552 72.9805 40.812 72.8802 41.1167 72.6797C41.4214 72.4792 41.6571 72.1849 41.8237 71.7969C41.993 71.4089 42.0776 70.9323 42.0776 70.3672ZM44.3755 67.7617V66.3672H50.9458V67.7617H48.4966V74.3672H46.8247V67.7617H44.3755ZM56.3745 74.3672L54.0854 66.3672H55.9331L57.2573 71.9258H57.3237L58.7847 66.3672H60.3667L61.8237 71.9375H61.894L63.2183 66.3672H65.0659L62.7769 74.3672H61.1284L59.605 69.1367H59.5425L58.0229 74.3672H56.3745ZM66.5444 74.3672H64.7319L67.4937 66.3672H69.6733L72.4312 74.3672H70.6187L68.6147 68.1953H68.5522L66.5444 74.3672ZM66.4312 71.2227H70.7124V72.543H66.4312V71.2227ZM72.1118 67.7617V66.3672H78.6821V67.7617H76.2329V74.3672H74.561V67.7617H72.1118ZM79.7642 74.3672V66.3672H85.1548V67.7617H81.4556V69.668H84.8774V71.0625H81.4556V72.9727H85.1704V74.3672H79.7642ZM86.4995 74.3672V66.3672H89.6558C90.2599 66.3672 90.7756 66.4753 91.2026 66.6914C91.6323 66.9049 91.9591 67.2083 92.1831 67.6016C92.4097 67.9922 92.5229 68.4518 92.5229 68.9805C92.5229 69.5117 92.4084 69.9687 92.1792 70.3516C91.95 70.7318 91.618 71.0234 91.1831 71.2266C90.7508 71.4297 90.2274 71.5312 89.6128 71.5312H87.4995V70.1719H89.3394C89.6623 70.1719 89.9305 70.1276 90.144 70.0391C90.3576 69.9505 90.5164 69.8177 90.6206 69.6406C90.7274 69.4635 90.7808 69.2435 90.7808 68.9805C90.7808 68.7148 90.7274 68.4909 90.6206 68.3086C90.5164 68.1263 90.3563 67.9883 90.1401 67.8945C89.9266 67.7982 89.6571 67.75 89.3315 67.75H88.1909V74.3672H86.4995ZM90.8198 70.7266L92.8081 74.3672H90.9409L88.9956 70.7266H90.8198Z" fill="white"/>
</svg>
