<svg width="150" height="150" viewBox="0 0 150 150" fill="none" xmlns="http://www.w3.org/2000/svg">
<g clip-path="url(#clip0_1_117)">
<path d="M108 45L100 121.03H99.9426L98.4783 133H21.3476L20 120.561L13 45.9386L108 45Z" fill="#721E1C"/>
<path d="M106.789 143.981H13.0383C11.861 143.981 10.8756 143.085 10.765 141.913L1.01029 38.497C0.891623 37.241 1.81295 36.1276 3.06895 36.0103C4.32895 35.893 5.43695 36.813 5.55562 38.069L15.1156 139.416H104.712L114.272 38.069C114.39 36.813 115.493 35.8903 116.758 36.0103C118.013 36.1276 118.936 37.241 118.817 38.497L109.061 141.913C108.95 143.085 107.966 143.981 106.789 143.981Z" fill="#2F1514"/>
<path d="M146.481 68.3906C143.92 64.0052 139.412 61.1732 133.444 60.2012C127.609 59.2532 121.285 60.3026 114.377 63.3573C114.062 68.3106 113.67 73.9852 113.194 79.9732C117.801 76.8252 122.958 74.0732 127.949 73.2839C129.597 73.0212 130.836 73.2266 131.641 73.8852C132.616 74.6826 133.068 76.1746 132.821 77.7812C132.329 80.9772 129.586 84.1932 126.82 87.2132C122.548 91.8759 117.265 96.1159 111.382 99.6652C110.765 105.449 110.07 111.121 109.293 116.345C111.341 115.405 113.332 114.419 115.23 113.432C123.5 109.136 138.492 99.9439 146.012 86.6399C149.336 80.7599 149.521 73.5972 146.481 68.3906Z" fill="#2F1514"/>
<path d="M39.2689 62.6194L39 69.6143L45.9948 69.8832L46.2637 62.8883L39.2689 62.6194Z" fill="#FCD276"/>
<path d="M24.1616 67.6195L20 73.248L25.6286 77.4097L29.7902 71.7811L24.1616 67.6195Z" fill="#FCD276"/>
<path d="M57.2715 59.1487L52.5291 54L47.3803 58.7424L52.1228 63.8912L57.2715 59.1487Z" fill="#FCD276"/>
<path d="M33.0595 56.1929L26.1931 54.8315L24.8317 61.6979L31.6981 63.0593L33.0595 56.1929Z" fill="#FCD276"/>
<path d="M35.8911 99.7683L31.1487 94.6196L26 99.3621L30.7424 104.511L35.8911 99.7683Z" fill="#FCD276"/>
<path d="M78.6141 57.3007L72.3009 54.2769L69.2771 60.5901L75.5903 63.6139L78.6141 57.3007Z" fill="#FCD276"/>
<path d="M94.8911 59.7683L90.1487 54.6196L85 59.3621L89.7424 64.5108L94.8911 59.7683Z" fill="#FCD276"/>
<path d="M46.146 112.921H44.4351C44.4038 112.699 44.34 112.503 44.2437 112.331C44.1473 112.156 44.0236 112.008 43.8726 111.886C43.7215 111.763 43.547 111.669 43.3491 111.604C43.1538 111.539 42.9416 111.507 42.7124 111.507C42.2983 111.507 41.9377 111.61 41.6304 111.815C41.3231 112.018 41.0848 112.315 40.9155 112.706C40.7463 113.094 40.6616 113.565 40.6616 114.12C40.6616 114.69 40.7463 115.169 40.9155 115.557C41.0874 115.946 41.327 116.238 41.6343 116.436C41.9416 116.634 42.297 116.733 42.7007 116.733C42.9272 116.733 43.1369 116.703 43.3296 116.643C43.5249 116.584 43.6981 116.496 43.8491 116.382C44.0002 116.265 44.1252 116.123 44.2241 115.956C44.3257 115.789 44.396 115.599 44.4351 115.386L46.146 115.393C46.1017 115.761 45.991 116.115 45.814 116.456C45.6395 116.794 45.4038 117.098 45.1069 117.366C44.8127 117.632 44.4611 117.843 44.0522 117.999C43.646 118.153 43.1864 118.229 42.6733 118.229C41.9598 118.229 41.3218 118.068 40.7593 117.745C40.1994 117.422 39.7567 116.955 39.4312 116.343C39.1082 115.731 38.9468 114.99 38.9468 114.12C38.9468 113.248 39.1108 112.505 39.439 111.893C39.7671 111.281 40.2124 110.815 40.7749 110.495C41.3374 110.172 41.9702 110.011 42.6733 110.011C43.1369 110.011 43.5666 110.076 43.9624 110.206C44.3608 110.336 44.7137 110.526 45.021 110.776C45.3283 111.024 45.5783 111.327 45.771 111.686C45.9663 112.046 46.0913 112.457 46.146 112.921ZM54.7104 114.12C54.7104 114.992 54.5451 115.735 54.2144 116.347C53.8862 116.959 53.4383 117.426 52.8706 117.749C52.3055 118.069 51.6701 118.229 50.9644 118.229C50.2534 118.229 49.6154 118.068 49.0503 117.745C48.4852 117.422 48.0386 116.955 47.7104 116.343C47.3823 115.731 47.2183 114.99 47.2183 114.12C47.2183 113.248 47.3823 112.505 47.7104 111.893C48.0386 111.281 48.4852 110.815 49.0503 110.495C49.6154 110.172 50.2534 110.011 50.9644 110.011C51.6701 110.011 52.3055 110.172 52.8706 110.495C53.4383 110.815 53.8862 111.281 54.2144 111.893C54.5451 112.505 54.7104 113.248 54.7104 114.12ZM52.9956 114.12C52.9956 113.555 52.911 113.078 52.7417 112.69C52.575 112.302 52.3394 112.008 52.0347 111.807C51.73 111.607 51.3732 111.507 50.9644 111.507C50.5555 111.507 50.1987 111.607 49.894 111.807C49.5894 112.008 49.3524 112.302 49.1831 112.69C49.0164 113.078 48.9331 113.555 48.9331 114.12C48.9331 114.685 49.0164 115.162 49.1831 115.55C49.3524 115.938 49.5894 116.232 49.894 116.432C50.1987 116.633 50.5555 116.733 50.9644 116.733C51.3732 116.733 51.73 116.633 52.0347 116.432C52.3394 116.232 52.575 115.938 52.7417 115.55C52.911 115.162 52.9956 114.685 52.9956 114.12ZM55.9634 118.12V110.12H61.2603V111.515H57.6548V113.421H60.9087V114.815H57.6548V118.12H55.9634ZM62.3979 118.12V110.12H67.6948V111.515H64.0894V113.421H67.3433V114.815H64.0894V118.12H62.3979ZM68.8325 118.12V110.12H74.2231V111.515H70.5239V113.421H73.9458V114.815H70.5239V116.725H74.2388V118.12H68.8325ZM75.5679 118.12V110.12H80.9585V111.515H77.2593V113.421H80.6812V114.815H77.2593V116.725H80.9741V118.12H75.5679Z" fill="white"/>
<path d="M50.4195 92.6196L44 95.4106L46.7911 101.83L53.2106 99.039L50.4195 92.6196Z" fill="#FCD276"/>
<path d="M31.2689 78.6194L31 85.6143L37.9948 85.8832L38.2637 78.8883L31.2689 78.6194Z" fill="#FCD276"/>
<path d="M65.9312 64.8194L59.1998 62.8989L57.2794 69.6303L64.0108 71.5508L65.9312 64.8194Z" fill="#FCD276"/>
<path d="M53.4843 75.6198L48 79.9697L52.35 85.4541L57.8343 81.1041L53.4843 75.6198Z" fill="#FCD276"/>
<path d="M82.4195 62.6196L76 65.4106L78.7911 71.8301L85.2106 69.039L82.4195 62.6196Z" fill="#FCD276"/>
<path d="M102.425 63.951L95.4387 63.5122L94.9999 70.4984L101.986 70.9372L102.425 63.951Z" fill="#FCD276"/>
<path d="M75.8987 81.6302L71.0105 76.6196L66 81.5078L70.8882 86.5184L75.8987 81.6302Z" fill="#FCD276"/>
<path d="M94.4729 85.0452L94.4255 78.0454L87.4257 78.0928L87.473 85.0926L94.4729 85.0452Z" fill="#FCD276"/>
<path d="M84.5632 94.6805L81.0609 88.6196L75 92.1219L78.5023 98.1828L84.5632 94.6805Z" fill="#FCD276"/>
<path d="M97.9028 95.7759L91.1561 93.9097L89.2899 100.656L96.0366 102.523L97.9028 95.7759Z" fill="#FCD276"/>
<path d="M68.7164 99.5785L67.9589 92.6196L61 93.3772L61.7576 100.336L68.7164 99.5785Z" fill="#FCD276"/>
<path d="M32.0151 21.3008H30.3042C30.2729 21.0794 30.2091 20.8828 30.1128 20.7109C30.0164 20.5365 29.8927 20.388 29.7417 20.2656C29.5907 20.1432 29.4162 20.0495 29.2183 19.9844C29.0229 19.9193 28.8107 19.8867 28.5815 19.8867C28.1675 19.8867 27.8068 19.9896 27.4995 20.1953C27.1922 20.3984 26.9539 20.6953 26.7847 21.0859C26.6154 21.474 26.5308 21.9453 26.5308 22.5C26.5308 23.0703 26.6154 23.5495 26.7847 23.9375C26.9565 24.3255 27.1961 24.6185 27.5034 24.8164C27.8107 25.0143 28.1662 25.1133 28.5698 25.1133C28.7964 25.1133 29.006 25.0833 29.1987 25.0234C29.394 24.9635 29.5672 24.8763 29.7183 24.7617C29.8693 24.6445 29.9943 24.5026 30.0933 24.3359C30.1948 24.1693 30.2651 23.9792 30.3042 23.7656L32.0151 23.7734C31.9709 24.1406 31.8602 24.4948 31.6831 24.8359C31.5086 25.1745 31.2729 25.4779 30.9761 25.7461C30.6818 26.0117 30.3302 26.2227 29.9214 26.3789C29.5151 26.5326 29.0555 26.6094 28.5425 26.6094C27.8289 26.6094 27.1909 26.4479 26.6284 26.125C26.0685 25.8021 25.6258 25.3346 25.3003 24.7227C24.9774 24.1107 24.8159 23.3698 24.8159 22.5C24.8159 21.6276 24.98 20.8854 25.3081 20.2734C25.6362 19.6615 26.0815 19.1953 26.644 18.875C27.2065 18.5521 27.8394 18.3906 28.5425 18.3906C29.006 18.3906 29.4357 18.4557 29.8315 18.5859C30.23 18.7161 30.5828 18.9062 30.8901 19.1562C31.1974 19.4036 31.4474 19.707 31.6401 20.0664C31.8354 20.4258 31.9604 20.8372 32.0151 21.3008ZM34.9194 18.5V26.5H33.228V18.5H34.9194ZM43.0024 18.5V26.5H41.5415L38.061 21.4648H38.0024V26.5H36.311V18.5H37.7954L41.2485 23.5312H41.3188V18.5H43.0024ZM51.0913 18.5V26.5H49.6304L46.1499 21.4648H46.0913V26.5H44.3999V18.5H45.8843L49.3374 23.5312H49.4077V18.5H51.0913ZM53.8677 26.5H52.0552L54.8169 18.5H56.9966L59.7544 26.5H57.9419L55.938 20.3281H55.8755L53.8677 26.5ZM53.7544 23.3555H58.0356V24.6758H53.7544V23.3555ZM60.7173 18.5H62.8032L65.0063 23.875H65.1001L67.3032 18.5H69.3892V26.5H67.7485V21.293H67.6821L65.6118 26.4609H64.4946L62.4243 21.2734H62.3579V26.5H60.7173V18.5ZM78.1343 22.5C78.1343 23.3724 77.9689 24.1146 77.6382 24.7266C77.3101 25.3385 76.8621 25.806 76.2944 26.1289C75.7293 26.4492 75.0939 26.6094 74.3882 26.6094C73.6772 26.6094 73.0392 26.4479 72.4741 26.125C71.909 25.8021 71.4624 25.3346 71.1343 24.7227C70.8062 24.1107 70.6421 23.3698 70.6421 22.5C70.6421 21.6276 70.8062 20.8854 71.1343 20.2734C71.4624 19.6615 71.909 19.1953 72.4741 18.875C73.0392 18.5521 73.6772 18.3906 74.3882 18.3906C75.0939 18.3906 75.7293 18.5521 76.2944 18.875C76.8621 19.1953 77.3101 19.6615 77.6382 20.2734C77.9689 20.8854 78.1343 21.6276 78.1343 22.5ZM76.4194 22.5C76.4194 21.9349 76.3348 21.4583 76.1655 21.0703C75.9989 20.6823 75.7632 20.388 75.4585 20.1875C75.1538 19.987 74.797 19.8867 74.3882 19.8867C73.9793 19.8867 73.6226 19.987 73.3179 20.1875C73.0132 20.388 72.7762 20.6823 72.6069 21.0703C72.4403 21.4583 72.3569 21.9349 72.3569 22.5C72.3569 23.0651 72.4403 23.5417 72.6069 23.9297C72.7762 24.3177 73.0132 24.612 73.3179 24.8125C73.6226 25.013 73.9793 25.1133 74.3882 25.1133C74.797 25.1133 75.1538 25.013 75.4585 24.8125C75.7632 24.612 75.9989 24.3177 76.1655 23.9297C76.3348 23.5417 76.4194 23.0651 76.4194 22.5ZM86.0786 18.5V26.5H84.6177L81.1372 21.4648H81.0786V26.5H79.3872V18.5H80.8716L84.3247 23.5312H84.395V18.5H86.0786ZM92.4438 26.6172C91.8918 26.6172 91.4152 26.5182 91.0142 26.3203C90.6131 26.1224 90.3045 25.8542 90.0884 25.5156C89.8748 25.1745 89.7681 24.7943 89.7681 24.375C89.7681 24.0625 89.8306 23.7852 89.9556 23.543C90.0806 23.3008 90.255 23.0781 90.479 22.875C90.703 22.6693 90.9634 22.4648 91.2603 22.2617L92.811 21.2422C93.0116 21.1146 93.1587 20.9805 93.2524 20.8398C93.3462 20.6966 93.3931 20.5417 93.3931 20.375C93.3931 20.2161 93.3293 20.069 93.2017 19.9336C93.0741 19.7982 92.8931 19.7318 92.6587 19.7344C92.5024 19.7344 92.367 19.7695 92.2524 19.8398C92.1379 19.9076 92.048 19.9974 91.9829 20.1094C91.9204 20.2187 91.8892 20.3411 91.8892 20.4766C91.8892 20.6432 91.936 20.8125 92.0298 20.9844C92.1235 21.1562 92.2485 21.3385 92.4048 21.5312C92.561 21.7214 92.7316 21.9271 92.9165 22.1484L96.7095 26.5H94.9751L91.811 22.9766C91.6027 22.7396 91.3944 22.4922 91.186 22.2344C90.9803 21.974 90.8084 21.6979 90.6704 21.4062C90.5324 21.112 90.4634 20.793 90.4634 20.4492C90.4634 20.0612 90.5532 19.7122 90.7329 19.4023C90.9152 19.0924 91.1704 18.8477 91.4985 18.668C91.8267 18.4857 92.2095 18.3945 92.647 18.3945C93.0741 18.3945 93.4425 18.4818 93.7524 18.6562C94.0649 18.8281 94.3045 19.0573 94.4712 19.3437C94.6405 19.6276 94.7251 19.9401 94.7251 20.2812C94.7251 20.6589 94.6313 21.0013 94.4438 21.3086C94.259 21.6133 93.9985 21.8867 93.6626 22.1289L92.0298 23.3047C91.8084 23.4661 91.6444 23.6315 91.5376 23.8008C91.4334 23.9674 91.3813 24.1276 91.3813 24.2812C91.3813 24.4714 91.4282 24.6419 91.522 24.793C91.6157 24.944 91.7485 25.0638 91.9204 25.1523C92.0923 25.2383 92.2941 25.2812 92.5259 25.2812C92.8071 25.2812 93.0845 25.2174 93.3579 25.0898C93.634 24.9596 93.884 24.776 94.1079 24.5391C94.3345 24.2995 94.5155 24.0156 94.6509 23.6875C94.7863 23.3594 94.854 22.9961 94.854 22.5977H96.2329C96.2329 23.0872 96.1795 23.5286 96.0728 23.9219C95.966 24.3125 95.8175 24.6536 95.6274 24.9453C95.4373 25.2344 95.2199 25.4714 94.9751 25.6562C94.897 25.7057 94.8215 25.7526 94.7485 25.7969C94.6756 25.8411 94.6001 25.888 94.522 25.9375C94.2251 26.1771 93.8931 26.3503 93.5259 26.457C93.1613 26.5638 92.8006 26.6172 92.4438 26.6172Z" fill="#FCD276"/>
<path d="M29.9893 39.5V31.5H33.1455C33.7523 31.5 34.2692 31.6159 34.6963 31.8477C35.1234 32.0768 35.4489 32.3958 35.6729 32.8047C35.8994 33.2109 36.0127 33.6797 36.0127 34.2109C36.0127 34.7422 35.8981 35.2109 35.6689 35.6172C35.4398 36.0234 35.1077 36.3398 34.6729 36.5664C34.2406 36.793 33.7171 36.9062 33.1025 36.9062H31.0908V35.5508H32.8291C33.1546 35.5508 33.4229 35.4948 33.6338 35.3828C33.8473 35.2682 34.0062 35.1107 34.1104 34.9102C34.2171 34.707 34.2705 34.474 34.2705 34.2109C34.2705 33.9453 34.2171 33.7135 34.1104 33.5156C34.0062 33.3151 33.8473 33.1602 33.6338 33.0508C33.4202 32.9388 33.1494 32.8828 32.8213 32.8828H31.6807V39.5H29.9893ZM38.8027 31.5V39.5H37.1113V31.5H38.8027ZM40.1943 39.5V31.5H41.8857V38.1055H45.3154V39.5H40.1943ZM53.4756 35.5C53.4756 36.3724 53.3102 37.1146 52.9795 37.7266C52.6514 38.3385 52.2035 38.806 51.6357 39.1289C51.0706 39.4492 50.4352 39.6094 49.7295 39.6094C49.0186 39.6094 48.3805 39.4479 47.8154 39.125C47.2503 38.8021 46.8037 38.3346 46.4756 37.7227C46.1475 37.1107 45.9834 36.3698 45.9834 35.5C45.9834 34.6276 46.1475 33.8854 46.4756 33.2734C46.8037 32.6615 47.2503 32.1953 47.8154 31.875C48.3805 31.5521 49.0186 31.3906 49.7295 31.3906C50.4352 31.3906 51.0706 31.5521 51.6357 31.875C52.2035 32.1953 52.6514 32.6615 52.9795 33.2734C53.3102 33.8854 53.4756 34.6276 53.4756 35.5ZM51.7607 35.5C51.7607 34.9349 51.6761 34.4583 51.5068 34.0703C51.3402 33.6823 51.1045 33.388 50.7998 33.1875C50.4951 32.987 50.1383 32.8867 49.7295 32.8867C49.3206 32.8867 48.9639 32.987 48.6592 33.1875C48.3545 33.388 48.1175 33.6823 47.9482 34.0703C47.7816 34.4583 47.6982 34.9349 47.6982 35.5C47.6982 36.0651 47.7816 36.5417 47.9482 36.9297C48.1175 37.3177 48.3545 37.612 48.6592 37.8125C48.9639 38.013 49.3206 38.1133 49.7295 38.1133C50.1383 38.1133 50.4951 38.013 50.7998 37.8125C51.1045 37.612 51.3402 37.3177 51.5068 36.9297C51.6761 36.5417 51.7607 36.0651 51.7607 35.5ZM61.4199 31.5V39.5H59.959L56.4785 34.4648H56.4199V39.5H54.7285V31.5H56.2129L59.666 36.5312H59.7363V31.5H61.4199ZM69.876 34.3008H68.165C68.1338 34.0794 68.07 33.8828 67.9736 33.7109C67.8773 33.5365 67.7536 33.388 67.6025 33.2656C67.4515 33.1432 67.277 33.0495 67.0791 32.9844C66.8838 32.9193 66.6715 32.8867 66.4424 32.8867C66.0283 32.8867 65.6676 32.9896 65.3604 33.1953C65.0531 33.3984 64.8148 33.6953 64.6455 34.0859C64.4762 34.474 64.3916 34.9453 64.3916 35.5C64.3916 36.0703 64.4762 36.5495 64.6455 36.9375C64.8174 37.3255 65.057 37.6185 65.3643 37.8164C65.6715 38.0143 66.027 38.1133 66.4307 38.1133C66.6572 38.1133 66.8669 38.0833 67.0596 38.0234C67.2549 37.9635 67.4281 37.8763 67.5791 37.7617C67.7301 37.6445 67.8551 37.5026 67.9541 37.3359C68.0557 37.1693 68.126 36.9792 68.165 36.7656L69.876 36.7734C69.8317 37.1406 69.721 37.4948 69.5439 37.8359C69.3695 38.1745 69.1338 38.4779 68.8369 38.7461C68.5426 39.0117 68.1911 39.2227 67.7822 39.3789C67.376 39.5326 66.9163 39.6094 66.4033 39.6094C65.6898 39.6094 65.0518 39.4479 64.4893 39.125C63.9294 38.8021 63.4867 38.3346 63.1611 37.7227C62.8382 37.1107 62.6768 36.3698 62.6768 35.5C62.6768 34.6276 62.8408 33.8854 63.1689 33.2734C63.4971 32.6615 63.9424 32.1953 64.5049 31.875C65.0674 31.5521 65.7002 31.3906 66.4033 31.3906C66.8669 31.3906 67.2965 31.4557 67.6924 31.5859C68.0908 31.7161 68.4437 31.9062 68.751 32.1562C69.0583 32.4036 69.3083 32.707 69.501 33.0664C69.6963 33.4258 69.8213 33.8372 69.876 34.3008ZM72.7803 31.5V39.5H71.0889V31.5H72.7803ZM74.1719 39.5V31.5H75.8633V38.1055H79.293V39.5H74.1719ZM80.4131 39.5V31.5H82.1045V38.1055H85.5342V39.5H80.4131ZM93.6943 35.5C93.6943 36.3724 93.529 37.1146 93.1982 37.7266C92.8701 38.3385 92.4222 38.806 91.8545 39.1289C91.2894 39.4492 90.654 39.6094 89.9482 39.6094C89.2373 39.6094 88.5993 39.4479 88.0342 39.125C87.4691 38.8021 87.0225 38.3346 86.6943 37.7227C86.3662 37.1107 86.2021 36.3698 86.2021 35.5C86.2021 34.6276 86.3662 33.8854 86.6943 33.2734C87.0225 32.6615 87.4691 32.1953 88.0342 31.875C88.5993 31.5521 89.2373 31.3906 89.9482 31.3906C90.654 31.3906 91.2894 31.5521 91.8545 31.875C92.4222 32.1953 92.8701 32.6615 93.1982 33.2734C93.529 33.8854 93.6943 34.6276 93.6943 35.5ZM91.9795 35.5C91.9795 34.9349 91.8949 34.4583 91.7256 34.0703C91.5589 33.6823 91.3232 33.388 91.0186 33.1875C90.7139 32.987 90.3571 32.8867 89.9482 32.8867C89.5394 32.8867 89.1826 32.987 88.8779 33.1875C88.5732 33.388 88.3363 33.6823 88.167 34.0703C88.0003 34.4583 87.917 34.9349 87.917 35.5C87.917 36.0651 88.0003 36.5417 88.167 36.9297C88.3363 37.3177 88.5732 37.612 88.8779 37.8125C89.1826 38.013 89.5394 38.1133 89.9482 38.1133C90.3571 38.1133 90.7139 38.013 91.0186 37.8125C91.3232 37.612 91.5589 37.3177 91.7256 36.9297C91.8949 36.5417 91.9795 36.0651 91.9795 35.5Z" fill="#FCD276"/>
</g>
<defs>
<clipPath id="clip0_1_117">
<rect width="150" height="150" fill="white"/>
</clipPath>
</defs>
</svg>
