<svg width="150" height="150" viewBox="0 0 150 150" fill="none" xmlns="http://www.w3.org/2000/svg">
<path d="M15.1729 67.7976L18.5889 104.003H101.238L104.654 67.7976H15.1729Z" fill="#F8DCA8"/>
<path d="M18.5889 104.003L21.3475 133.252H98.4782L101.238 104.003H18.5889Z" fill="#2F1514"/>
<path d="M15.4569 70.7974H104.37L106.505 48.1694H13.3223L15.4569 70.7974Z" fill="#FCD276"/>
<path d="M106.789 143.98H13.0383C11.861 143.98 10.8756 143.085 10.765 141.912L1.01029 38.4973C0.891623 37.2413 1.81295 36.128 3.06895 36.0093C4.32362 35.9 5.437 36.8133 5.55567 38.068L15.1156 139.416H104.712L114.272 38.068C114.39 36.8133 115.498 35.8973 116.758 36.0093C118.014 36.128 118.936 37.2413 118.817 38.4973L109.061 141.912C108.95 143.085 107.966 143.98 106.789 143.98Z" fill="#2F1514"/>
<path d="M146.481 68.3906C143.92 64.0039 139.412 61.1719 133.444 60.2013C127.609 59.2533 121.285 60.3026 114.377 63.3573C114.062 68.3093 113.672 73.9839 113.194 79.9733C117.801 76.8253 122.958 74.0732 127.95 73.2825C129.597 73.0212 130.837 73.2253 131.642 73.8853C132.616 74.6813 133.068 76.1746 132.821 77.7812C132.329 80.9772 129.586 84.1933 126.82 87.2133C122.548 91.8759 117.265 96.1159 111.382 99.6652C110.765 105.448 110.07 111.12 109.293 116.344C111.341 115.405 113.332 114.418 115.23 113.432C123.5 109.136 138.492 99.9439 146.012 86.6399C149.337 80.7599 149.521 73.5959 146.481 68.3906Z" fill="#2F1514"/>
<path d="M31.4241 119.598V111.598H36.8147V112.993H33.1155V114.899H36.5374V116.293H33.1155V118.203H36.8303V119.598H31.4241ZM42.4993 113.899C42.468 113.584 42.3339 113.339 42.0969 113.164C41.8599 112.99 41.5383 112.903 41.1321 112.903C40.856 112.903 40.623 112.942 40.4329 113.02C40.2428 113.095 40.0969 113.201 39.9954 113.336C39.8964 113.472 39.8469 113.625 39.8469 113.797C39.8417 113.94 39.8717 114.065 39.9368 114.172C40.0045 114.279 40.0969 114.371 40.2141 114.45C40.3313 114.525 40.4667 114.592 40.6204 114.649C40.774 114.703 40.9381 114.75 41.1125 114.789L41.8313 114.961C42.1803 115.039 42.5006 115.144 42.7922 115.274C43.0839 115.404 43.3365 115.564 43.55 115.754C43.7636 115.944 43.929 116.168 44.0461 116.426C44.1659 116.684 44.2271 116.98 44.2297 117.313C44.2271 117.802 44.1021 118.227 43.8547 118.586C43.6099 118.943 43.2558 119.22 42.7922 119.418C42.3313 119.614 41.7753 119.711 41.1243 119.711C40.4784 119.711 39.9159 119.612 39.4368 119.414C38.9602 119.217 38.5878 118.924 38.3196 118.536C38.054 118.145 37.9146 117.662 37.9016 117.086H39.5383C39.5566 117.355 39.6334 117.578 39.7688 117.758C39.9068 117.935 40.0904 118.069 40.3196 118.161C40.5514 118.249 40.8131 118.293 41.1047 118.293C41.3912 118.293 41.6399 118.252 41.8508 118.168C42.0644 118.085 42.2297 117.969 42.3469 117.821C42.4641 117.672 42.5227 117.502 42.5227 117.309C42.5227 117.129 42.4693 116.978 42.3625 116.856C42.2584 116.733 42.1047 116.629 41.9016 116.543C41.7011 116.457 41.455 116.379 41.1633 116.309L40.2922 116.09C39.6178 115.926 39.0852 115.67 38.6946 115.321C38.304 114.972 38.1099 114.502 38.1125 113.911C38.1099 113.426 38.2389 113.003 38.4993 112.641C38.7623 112.279 39.123 111.996 39.5813 111.793C40.0396 111.59 40.5605 111.489 41.1438 111.489C41.7375 111.489 42.2558 111.59 42.6985 111.793C43.1438 111.996 43.4902 112.279 43.7375 112.641C43.9849 113.003 44.1125 113.422 44.1204 113.899H42.4993ZM45.3674 119.598V111.598H48.5237C49.1305 111.598 49.6474 111.714 50.0745 111.946C50.5015 112.175 50.8271 112.494 51.051 112.903C51.2776 113.309 51.3909 113.778 51.3909 114.309C51.3909 114.84 51.2763 115.309 51.0471 115.715C50.818 116.121 50.4859 116.438 50.051 116.664C49.6187 116.891 49.0953 117.004 48.4807 117.004H46.469V115.649H48.2073C48.5328 115.649 48.801 115.593 49.012 115.481C49.2255 115.366 49.3844 115.209 49.4885 115.008C49.5953 114.805 49.6487 114.572 49.6487 114.309C49.6487 114.043 49.5953 113.812 49.4885 113.614C49.3844 113.413 49.2255 113.258 49.012 113.149C48.7984 113.037 48.5276 112.981 48.1995 112.981H47.0588V119.598H45.3674ZM52.4895 119.598V111.598H55.6458C56.2499 111.598 56.7655 111.706 57.1926 111.922C57.6223 112.136 57.9491 112.439 58.1731 112.832C58.3997 113.223 58.5129 113.683 58.5129 114.211C58.5129 114.743 58.3984 115.2 58.1692 115.582C57.94 115.963 57.608 116.254 57.1731 116.457C56.7408 116.661 56.2174 116.762 55.6028 116.762H53.4895V115.403H55.3293C55.6523 115.403 55.9205 115.358 56.134 115.27C56.3476 115.181 56.5064 115.049 56.6106 114.871C56.7174 114.694 56.7708 114.474 56.7708 114.211C56.7708 113.946 56.7174 113.722 56.6106 113.539C56.5064 113.357 56.3463 113.219 56.1301 113.125C55.9166 113.029 55.6471 112.981 55.3215 112.981H54.1809V119.598H52.4895ZM56.8098 115.957L58.7981 119.598H56.9309L54.9856 115.957H56.8098ZM59.7083 119.598V111.598H65.0989V112.993H61.3997V114.899H64.8215V116.293H61.3997V118.203H65.1145V119.598H59.7083ZM70.7834 113.899C70.7522 113.584 70.6181 113.339 70.3811 113.164C70.1441 112.99 69.8225 112.903 69.4163 112.903C69.1402 112.903 68.9071 112.942 68.717 113.02C68.5269 113.095 68.3811 113.201 68.2795 113.336C68.1806 113.472 68.1311 113.625 68.1311 113.797C68.1259 113.94 68.1558 114.065 68.2209 114.172C68.2887 114.279 68.3811 114.371 68.4983 114.45C68.6155 114.525 68.7509 114.592 68.9045 114.649C69.0582 114.703 69.2222 114.75 69.3967 114.789L70.1155 114.961C70.4644 115.039 70.7847 115.144 71.0764 115.274C71.3681 115.404 71.6207 115.564 71.8342 115.754C72.0478 115.944 72.2131 116.168 72.3303 116.426C72.4501 116.684 72.5113 116.98 72.5139 117.313C72.5113 117.802 72.3863 118.227 72.1389 118.586C71.8941 118.943 71.54 119.22 71.0764 119.418C70.6155 119.614 70.0595 119.711 69.4084 119.711C68.7626 119.711 68.2001 119.612 67.7209 119.414C67.2444 119.217 66.872 118.924 66.6038 118.536C66.3381 118.145 66.1988 117.662 66.1858 117.086H67.8225C67.8407 117.355 67.9176 117.578 68.053 117.758C68.191 117.935 68.3746 118.069 68.6038 118.161C68.8355 118.249 69.0972 118.293 69.3889 118.293C69.6754 118.293 69.9241 118.252 70.135 118.168C70.3486 118.085 70.5139 117.969 70.6311 117.821C70.7483 117.672 70.8069 117.502 70.8069 117.309C70.8069 117.129 70.7535 116.978 70.6467 116.856C70.5426 116.733 70.3889 116.629 70.1858 116.543C69.9853 116.457 69.7392 116.379 69.4475 116.309L68.5764 116.09C67.9019 115.926 67.3694 115.67 66.9788 115.321C66.5881 114.972 66.3941 114.502 66.3967 113.911C66.3941 113.426 66.523 113.003 66.7834 112.641C67.0465 112.279 67.4071 111.996 67.8655 111.793C68.3238 111.59 68.8446 111.489 69.428 111.489C70.0217 111.489 70.54 111.59 70.9827 111.793C71.428 111.996 71.7743 112.279 72.0217 112.641C72.2691 113.003 72.3967 113.422 72.4045 113.899H70.7834ZM77.9915 113.899C77.9602 113.584 77.8261 113.339 77.5891 113.164C77.3521 112.99 77.0305 112.903 76.6243 112.903C76.3482 112.903 76.1152 112.942 75.925 113.02C75.7349 113.095 75.5891 113.201 75.4875 113.336C75.3886 113.472 75.3391 113.625 75.3391 113.797C75.3339 113.94 75.3639 114.065 75.429 114.172C75.4967 114.279 75.5891 114.371 75.7063 114.45C75.8235 114.525 75.9589 114.592 76.1125 114.649C76.2662 114.703 76.4303 114.75 76.6047 114.789L77.3235 114.961C77.6724 115.039 77.9928 115.144 78.2844 115.274C78.5761 115.404 78.8287 115.564 79.0422 115.754C79.2558 115.944 79.4211 116.168 79.5383 116.426C79.6581 116.684 79.7193 116.98 79.7219 117.313C79.7193 117.802 79.5943 118.227 79.3469 118.586C79.1021 118.943 78.748 119.22 78.2844 119.418C77.8235 119.614 77.2675 119.711 76.6165 119.711C75.9706 119.711 75.4081 119.612 74.929 119.414C74.4524 119.217 74.08 118.924 73.8118 118.536C73.5461 118.145 73.4068 117.662 73.3938 117.086H75.0305C75.0487 117.355 75.1256 117.578 75.261 117.758C75.399 117.935 75.5826 118.069 75.8118 118.161C76.0435 118.249 76.3053 118.293 76.5969 118.293C76.8834 118.293 77.1321 118.252 77.343 118.168C77.5566 118.085 77.7219 117.969 77.8391 117.821C77.9563 117.672 78.0149 117.502 78.0149 117.309C78.0149 117.129 77.9615 116.978 77.8547 116.856C77.7506 116.733 77.5969 116.629 77.3938 116.543C77.1933 116.457 76.9472 116.379 76.6555 116.309L75.7844 116.09C75.1099 115.926 74.5774 115.67 74.1868 115.321C73.7961 114.972 73.6021 114.502 73.6047 113.911C73.6021 113.426 73.731 113.003 73.9915 112.641C74.2545 112.279 74.6152 111.996 75.0735 111.793C75.5318 111.59 76.0527 111.489 76.636 111.489C77.2297 111.489 77.748 111.59 78.1907 111.793C78.636 111.996 78.9823 112.279 79.2297 112.641C79.4771 113.003 79.6047 113.422 79.6125 113.899H77.9915ZM88.2112 115.598C88.2112 116.47 88.0458 117.213 87.7151 117.825C87.387 118.437 86.939 118.904 86.3713 119.227C85.8062 119.547 85.1708 119.707 84.4651 119.707C83.7542 119.707 83.1161 119.546 82.551 119.223C81.9859 118.9 81.5393 118.433 81.2112 117.821C80.8831 117.209 80.719 116.468 80.719 115.598C80.719 114.726 80.8831 113.983 81.2112 113.371C81.5393 112.759 81.9859 112.293 82.551 111.973C83.1161 111.65 83.7542 111.489 84.4651 111.489C85.1708 111.489 85.8062 111.65 86.3713 111.973C86.939 112.293 87.387 112.759 87.7151 113.371C88.0458 113.983 88.2112 114.726 88.2112 115.598ZM86.4963 115.598C86.4963 115.033 86.4117 114.556 86.2424 114.168C86.0758 113.78 85.8401 113.486 85.5354 113.286C85.2307 113.085 84.8739 112.985 84.4651 112.985C84.0562 112.985 83.6995 113.085 83.3948 113.286C83.0901 113.486 82.8531 113.78 82.6838 114.168C82.5172 114.556 82.4338 115.033 82.4338 115.598C82.4338 116.163 82.5172 116.64 82.6838 117.028C82.8531 117.416 83.0901 117.71 83.3948 117.911C83.6995 118.111 84.0562 118.211 84.4651 118.211C84.8739 118.211 85.2307 118.111 85.5354 117.911C85.8401 117.71 86.0758 117.416 86.2424 117.028C86.4117 116.64 86.4963 116.163 86.4963 115.598Z" fill="white"/>
<path d="M29.459 56.3184H31.5449L33.748 61.6934H33.8418L36.0449 56.3184H38.1309V64.3184H36.4902V59.1113H36.4238L34.3535 64.2793H33.2363L31.166 59.0918H31.0996V64.3184H29.459V56.3184ZM41.2158 56.3184V64.3184H39.5244V56.3184H41.2158ZM42.6074 64.3184V56.3184H44.2988V62.9238H47.7285V64.3184H42.6074ZM48.8486 64.3184V56.3184H50.54V59.8457H50.6455L53.5244 56.3184H55.5518L52.583 59.9004L55.5869 64.3184H53.5635L51.3721 61.0293L50.54 62.0449V64.3184H48.8486ZM58.9785 64.3184V56.3184H64.2754V57.7129H60.6699V59.6191H63.9238V61.0137H60.6699V64.3184H58.9785ZM72.7646 60.3184C72.7646 61.1908 72.5993 61.9329 72.2686 62.5449C71.9404 63.1569 71.4925 63.6243 70.9248 63.9473C70.3597 64.2676 69.7243 64.4277 69.0186 64.4277C68.3076 64.4277 67.6696 64.2663 67.1045 63.9434C66.5394 63.6204 66.0928 63.153 65.7646 62.541C65.4365 61.929 65.2725 61.1882 65.2725 60.3184C65.2725 59.446 65.4365 58.7038 65.7646 58.0918C66.0928 57.4798 66.5394 57.0137 67.1045 56.6934C67.6696 56.3704 68.3076 56.209 69.0186 56.209C69.7243 56.209 70.3597 56.3704 70.9248 56.6934C71.4925 57.0137 71.9404 57.4798 72.2686 58.0918C72.5993 58.7038 72.7646 59.446 72.7646 60.3184ZM71.0498 60.3184C71.0498 59.7533 70.9652 59.2767 70.7959 58.8887C70.6292 58.5007 70.3936 58.2064 70.0889 58.0059C69.7842 57.8053 69.4274 57.7051 69.0186 57.7051C68.6097 57.7051 68.2529 57.8053 67.9482 58.0059C67.6436 58.2064 67.4066 58.5007 67.2373 58.8887C67.0706 59.2767 66.9873 59.7533 66.9873 60.3184C66.9873 60.8835 67.0706 61.36 67.2373 61.748C67.4066 62.1361 67.6436 62.4303 67.9482 62.6309C68.2529 62.8314 68.6097 62.9316 69.0186 62.9316C69.4274 62.9316 69.7842 62.8314 70.0889 62.6309C70.3936 62.4303 70.6292 62.1361 70.7959 61.748C70.9652 61.36 71.0498 60.8835 71.0498 60.3184ZM74.9453 64.3184H73.1328L75.8945 56.3184H78.0742L80.832 64.3184H79.0195L77.0156 58.1465H76.9531L74.9453 64.3184ZM74.832 61.1738H79.1133V62.4941H74.832V61.1738ZM81.7949 56.3184H83.8809L86.084 61.6934H86.1777L88.3809 56.3184H90.4668V64.3184H88.8262V59.1113H88.7598L86.6895 64.2793H85.5723L83.502 59.0918H83.4355V64.3184H81.7949V56.3184Z" fill="white"/>
<path d="M39.4587 79.4453C39.4275 79.1302 39.2934 78.8854 39.0564 78.7109C38.8194 78.5365 38.4978 78.4492 38.0916 78.4492C37.8155 78.4492 37.5824 78.4883 37.3923 78.5664C37.2022 78.6419 37.0564 78.7474 36.9548 78.8828C36.8559 79.0182 36.8064 79.1719 36.8064 79.3438C36.8012 79.487 36.8311 79.612 36.8962 79.7187C36.9639 79.8255 37.0564 79.918 37.1736 79.9961C37.2908 80.0716 37.4262 80.138 37.5798 80.1953C37.7335 80.25 37.8975 80.2969 38.072 80.3359L38.7908 80.5078C39.1397 80.5859 39.46 80.6901 39.7517 80.8203C40.0434 80.9505 40.296 81.1107 40.5095 81.3008C40.7231 81.4909 40.8884 81.7148 41.0056 81.9727C41.1254 82.2305 41.1866 82.526 41.1892 82.8594C41.1866 83.349 41.0616 83.7734 40.8142 84.1328C40.5694 84.4896 40.2153 84.7669 39.7517 84.9648C39.2908 85.1602 38.7348 85.2578 38.0837 85.2578C37.4379 85.2578 36.8754 85.1589 36.3962 84.9609C35.9197 84.763 35.5473 84.4701 35.2791 84.082C35.0134 83.6914 34.8741 83.2083 34.8611 82.6328H36.4978C36.516 82.901 36.5929 83.125 36.7283 83.3047C36.8663 83.4818 37.0499 83.6159 37.2791 83.707C37.5108 83.7956 37.7725 83.8398 38.0642 83.8398C38.3507 83.8398 38.5994 83.7982 38.8103 83.7148C39.0238 83.6315 39.1892 83.5156 39.3064 83.3672C39.4236 83.2187 39.4822 83.0482 39.4822 82.8555C39.4822 82.6758 39.4288 82.5247 39.322 82.4023C39.2179 82.2799 39.0642 82.1758 38.8611 82.0898C38.6606 82.0039 38.4145 81.9258 38.1228 81.8555L37.2517 81.6367C36.5772 81.4727 36.0447 81.2161 35.6541 80.8672C35.2634 80.5182 35.0694 80.0482 35.072 79.457C35.0694 78.9727 35.1983 78.5495 35.4587 78.1875C35.7218 77.8255 36.0824 77.543 36.5408 77.3398C36.9991 77.1367 37.5199 77.0352 38.1033 77.0352C38.697 77.0352 39.2153 77.1367 39.658 77.3398C40.1033 77.543 40.4496 77.8255 40.697 78.1875C40.9444 78.5495 41.072 78.9687 41.0798 79.4453H39.4587ZM42.0222 78.5391V77.1445H48.5925V78.5391H46.1433V85.1445H44.4714V78.5391H42.0222ZM49.6746 85.1445V77.1445H55.0652V78.5391H51.366V80.4453H54.7878V81.8398H51.366V83.75H55.0808V85.1445H49.6746ZM57.7888 85.1445H55.9763L58.738 77.1445H60.9177L63.6755 85.1445H61.863L59.8591 78.9727H59.7966L57.7888 85.1445ZM57.6755 82H61.9568V83.3203H57.6755V82ZM64.6384 77.1445H66.7244L68.9275 82.5195H69.0212L71.2244 77.1445H73.3103V85.1445H71.6697V79.9375H71.6033L69.533 85.1055H68.4158L66.3455 79.918H66.2791V85.1445H64.6384V77.1445ZM74.7039 85.1445V77.1445H80.0945V78.5391H76.3953V80.4453H79.8171V81.8398H76.3953V83.75H80.1101V85.1445H74.7039ZM84.2751 85.1445H81.4392V77.1445H84.2986C85.1033 77.1445 85.796 77.3047 86.3767 77.625C86.9574 77.9427 87.4041 78.3997 87.7166 78.9961C88.0317 79.5924 88.1892 80.306 88.1892 81.1367C88.1892 81.9701 88.0317 82.6862 87.7166 83.2852C87.4041 83.8841 86.9548 84.3437 86.3689 84.6641C85.7856 84.9844 85.0876 85.1445 84.2751 85.1445ZM83.1306 83.6953H84.2048C84.7048 83.6953 85.1254 83.6068 85.4666 83.4297C85.8103 83.25 86.0681 82.9727 86.24 82.5977C86.4145 82.2201 86.5017 81.7331 86.5017 81.1367C86.5017 80.5456 86.4145 80.0625 86.24 79.6875C86.0681 79.3125 85.8116 79.0365 85.4705 78.8594C85.1293 78.6823 84.7087 78.5938 84.2087 78.5938H83.1306V83.6953Z" fill="#2F1514"/>
<path d="M48.3975 89.6992H50.4834L52.6865 95.0742H52.7803L54.9834 89.6992H57.0693V97.6992H55.4287V92.4922H55.3623L53.292 97.6602H52.1748L50.1045 92.4727H50.0381V97.6992H48.3975V89.6992ZM60.1543 89.6992V97.6992H58.4629V89.6992H60.1543ZM61.5459 97.6992V89.6992H63.2373V96.3047H66.667V97.6992H61.5459ZM67.7871 97.6992V89.6992H69.4785V93.2266H69.584L72.4629 89.6992H74.4902L71.5215 93.2812L74.5254 97.6992H72.502L70.3105 94.4102L69.4785 95.4258V97.6992H67.7871Z" fill="#2F1514"/>
</svg>
