<svg width="150" height="150" viewBox="0 0 150 150" fill="none" xmlns="http://www.w3.org/2000/svg">
<path d="M106.789 143.98H13.0383C11.861 143.98 10.8756 143.085 10.765 141.912L1.01029 38.4973C0.891623 37.2413 1.81295 36.128 3.06895 36.0093C4.32895 35.9 5.43695 36.8133 5.55562 38.068L15.1156 139.416H104.712L114.272 38.068C114.39 36.8133 115.493 35.8973 116.758 36.0093C118.013 36.128 118.936 37.2413 118.817 38.4973L109.061 141.912C108.95 143.085 107.966 143.98 106.789 143.98Z" fill="#2F1514"/>
<path d="M17.8542 96.2212L21.3476 133.252H98.4783L101.973 96.2212H17.8542Z" fill="#2F1514"/>
<path d="M146.481 68.3906C143.92 64.0039 139.412 61.1719 133.444 60.2013C127.609 59.2533 121.285 60.3026 114.377 63.3573C114.062 68.3093 113.67 73.9839 113.194 79.9733C117.801 76.8253 122.958 74.0732 127.949 73.2825C129.597 73.0212 130.836 73.2253 131.641 73.8853C132.616 74.6813 133.068 76.1746 132.821 77.7812C132.329 80.9772 129.586 84.1933 126.82 87.2133C122.548 91.8759 117.265 96.1159 111.382 99.6652C110.765 105.448 110.07 111.12 109.293 116.344C111.341 115.405 113.332 114.418 115.23 113.432C123.5 109.136 138.492 99.9439 146.012 86.6399C149.336 80.7599 149.521 73.5959 146.481 68.3906Z" fill="#2F1514"/>
<path d="M33.4229 115.598V107.598H38.8135V108.993H35.1143V110.899H38.5361V112.293H35.1143V114.203H38.8291V115.598H33.4229ZM44.498 109.899C44.4668 109.584 44.3327 109.339 44.0957 109.164C43.8587 108.99 43.5371 108.903 43.1309 108.903C42.8548 108.903 42.6217 108.942 42.4316 109.02C42.2415 109.095 42.0957 109.201 41.9941 109.336C41.8952 109.472 41.8457 109.625 41.8457 109.797C41.8405 109.94 41.8704 110.065 41.9355 110.172C42.0033 110.279 42.0957 110.371 42.2129 110.45C42.3301 110.525 42.4655 110.592 42.6191 110.649C42.7728 110.703 42.9368 110.75 43.1113 110.789L43.8301 110.961C44.179 111.039 44.4993 111.144 44.791 111.274C45.0827 111.404 45.3353 111.564 45.5488 111.754C45.7624 111.944 45.9277 112.168 46.0449 112.426C46.1647 112.684 46.2259 112.98 46.2285 113.313C46.2259 113.802 46.1009 114.227 45.8535 114.586C45.6087 114.943 45.2546 115.22 44.791 115.418C44.3301 115.614 43.7741 115.711 43.123 115.711C42.4772 115.711 41.9147 115.612 41.4355 115.414C40.959 115.217 40.5866 114.924 40.3184 114.536C40.0527 114.145 39.9134 113.662 39.9004 113.086H41.5371C41.5553 113.355 41.6322 113.578 41.7676 113.758C41.9056 113.935 42.0892 114.069 42.3184 114.161C42.5501 114.249 42.8118 114.293 43.1035 114.293C43.39 114.293 43.6387 114.252 43.8496 114.168C44.0632 114.085 44.2285 113.969 44.3457 113.821C44.4629 113.672 44.5215 113.502 44.5215 113.309C44.5215 113.129 44.4681 112.978 44.3613 112.856C44.2572 112.733 44.1035 112.629 43.9004 112.543C43.6999 112.457 43.4538 112.379 43.1621 112.309L42.291 112.09C41.6165 111.926 41.084 111.67 40.6934 111.321C40.3027 110.972 40.1087 110.502 40.1113 109.911C40.1087 109.426 40.2376 109.003 40.498 108.641C40.7611 108.279 41.1217 107.996 41.5801 107.793C42.0384 107.59 42.5592 107.489 43.1426 107.489C43.7363 107.489 44.2546 107.59 44.6973 107.793C45.1426 107.996 45.4889 108.279 45.7363 108.641C45.9837 109.003 46.1113 109.422 46.1191 109.899H44.498ZM47.3662 115.598V107.598H50.5225C51.1292 107.598 51.6462 107.714 52.0732 107.946C52.5003 108.175 52.8258 108.494 53.0498 108.903C53.2764 109.309 53.3896 109.778 53.3896 110.309C53.3896 110.84 53.2751 111.309 53.0459 111.715C52.8167 112.121 52.4847 112.438 52.0498 112.664C51.6175 112.891 51.0941 113.004 50.4795 113.004H48.4678V111.649H50.2061C50.5316 111.649 50.7998 111.593 51.0107 111.481C51.2243 111.366 51.3831 111.209 51.4873 111.008C51.5941 110.805 51.6475 110.572 51.6475 110.309C51.6475 110.043 51.5941 109.812 51.4873 109.614C51.3831 109.413 51.2243 109.258 51.0107 109.149C50.7972 109.037 50.5264 108.981 50.1982 108.981H49.0576V115.598H47.3662ZM54.4883 115.598V107.598H57.6445C58.2487 107.598 58.7643 107.706 59.1914 107.922C59.6211 108.136 59.9479 108.439 60.1719 108.832C60.3984 109.223 60.5117 109.683 60.5117 110.211C60.5117 110.743 60.3971 111.2 60.168 111.582C59.9388 111.963 59.6068 112.254 59.1719 112.457C58.7396 112.661 58.2161 112.762 57.6016 112.762H55.4883V111.403H57.3281C57.651 111.403 57.9193 111.358 58.1328 111.27C58.3464 111.181 58.5052 111.049 58.6094 110.871C58.7161 110.694 58.7695 110.474 58.7695 110.211C58.7695 109.946 58.7161 109.722 58.6094 109.539C58.5052 109.357 58.3451 109.219 58.1289 109.125C57.9154 109.029 57.6458 108.981 57.3203 108.981H56.1797V115.598H54.4883ZM58.8086 111.957L60.7969 115.598H58.9297L56.9844 111.957H58.8086ZM61.707 115.598V107.598H67.0977V108.993H63.3984V110.899H66.8203V112.293H63.3984V114.203H67.1133V115.598H61.707ZM72.7822 109.899C72.751 109.584 72.6169 109.339 72.3799 109.164C72.1429 108.99 71.8213 108.903 71.415 108.903C71.139 108.903 70.9059 108.942 70.7158 109.02C70.5257 109.095 70.3799 109.201 70.2783 109.336C70.1794 109.472 70.1299 109.625 70.1299 109.797C70.1247 109.94 70.1546 110.065 70.2197 110.172C70.2874 110.279 70.3799 110.371 70.4971 110.45C70.6143 110.525 70.7497 110.592 70.9033 110.649C71.057 110.703 71.221 110.75 71.3955 110.789L72.1143 110.961C72.4632 111.039 72.7835 111.144 73.0752 111.274C73.3669 111.404 73.6195 111.564 73.833 111.754C74.0465 111.944 74.2119 112.168 74.3291 112.426C74.4489 112.684 74.5101 112.98 74.5127 113.313C74.5101 113.802 74.3851 114.227 74.1377 114.586C73.8929 114.943 73.5387 115.22 73.0752 115.418C72.6143 115.614 72.0583 115.711 71.4072 115.711C70.7614 115.711 70.1989 115.612 69.7197 115.414C69.2432 115.217 68.8708 114.924 68.6025 114.536C68.3369 114.145 68.1976 113.662 68.1846 113.086H69.8213C69.8395 113.355 69.9163 113.578 70.0518 113.758C70.1898 113.935 70.3734 114.069 70.6025 114.161C70.8343 114.249 71.096 114.293 71.3877 114.293C71.6742 114.293 71.9229 114.252 72.1338 114.168C72.3473 114.085 72.5127 113.969 72.6299 113.821C72.7471 113.672 72.8057 113.502 72.8057 113.309C72.8057 113.129 72.7523 112.978 72.6455 112.856C72.5413 112.733 72.3877 112.629 72.1846 112.543C71.984 112.457 71.738 112.379 71.4463 112.309L70.5752 112.09C69.9007 111.926 69.3682 111.67 68.9775 111.321C68.5869 110.972 68.3929 110.502 68.3955 109.911C68.3929 109.426 68.5218 109.003 68.7822 108.641C69.0452 108.279 69.4059 107.996 69.8643 107.793C70.3226 107.59 70.8434 107.489 71.4268 107.489C72.0205 107.489 72.5387 107.59 72.9814 107.793C73.4268 107.996 73.7731 108.279 74.0205 108.641C74.2679 109.003 74.3955 109.422 74.4033 109.899H72.7822ZM79.9902 109.899C79.959 109.584 79.8249 109.339 79.5879 109.164C79.3509 108.99 79.0293 108.903 78.623 108.903C78.347 108.903 78.1139 108.942 77.9238 109.02C77.7337 109.095 77.5879 109.201 77.4863 109.336C77.3874 109.472 77.3379 109.625 77.3379 109.797C77.3327 109.94 77.3626 110.065 77.4277 110.172C77.4954 110.279 77.5879 110.371 77.7051 110.45C77.8223 110.525 77.9577 110.592 78.1113 110.649C78.265 110.703 78.429 110.75 78.6035 110.789L79.3223 110.961C79.6712 111.039 79.9915 111.144 80.2832 111.274C80.5749 111.404 80.8275 111.564 81.041 111.754C81.2546 111.944 81.4199 112.168 81.5371 112.426C81.6569 112.684 81.7181 112.98 81.7207 113.313C81.7181 113.802 81.5931 114.227 81.3457 114.586C81.1009 114.943 80.7467 115.22 80.2832 115.418C79.8223 115.614 79.2663 115.711 78.6152 115.711C77.9694 115.711 77.4069 115.612 76.9277 115.414C76.4512 115.217 76.0788 114.924 75.8105 114.536C75.5449 114.145 75.4056 113.662 75.3926 113.086H77.0293C77.0475 113.355 77.1243 113.578 77.2598 113.758C77.3978 113.935 77.5814 114.069 77.8105 114.161C78.0423 114.249 78.304 114.293 78.5957 114.293C78.8822 114.293 79.1309 114.252 79.3418 114.168C79.5553 114.085 79.7207 113.969 79.8379 113.821C79.9551 113.672 80.0137 113.502 80.0137 113.309C80.0137 113.129 79.9603 112.978 79.8535 112.856C79.7493 112.733 79.5957 112.629 79.3926 112.543C79.1921 112.457 78.946 112.379 78.6543 112.309L77.7832 112.09C77.1087 111.926 76.5762 111.67 76.1855 111.321C75.7949 110.972 75.6009 110.502 75.6035 109.911C75.6009 109.426 75.7298 109.003 75.9902 108.641C76.2533 108.279 76.6139 107.996 77.0723 107.793C77.5306 107.59 78.0514 107.489 78.6348 107.489C79.2285 107.489 79.7467 107.59 80.1895 107.793C80.6348 107.996 80.9811 108.279 81.2285 108.641C81.4759 109.003 81.6035 109.422 81.6113 109.899H79.9902ZM90.21 111.598C90.21 112.47 90.0446 113.213 89.7139 113.825C89.3857 114.437 88.9378 114.904 88.3701 115.227C87.805 115.547 87.1696 115.707 86.4639 115.707C85.7529 115.707 85.1149 115.546 84.5498 115.223C83.9847 114.9 83.5381 114.433 83.21 113.821C82.8818 113.209 82.7178 112.468 82.7178 111.598C82.7178 110.726 82.8818 109.983 83.21 109.371C83.5381 108.759 83.9847 108.293 84.5498 107.973C85.1149 107.65 85.7529 107.489 86.4639 107.489C87.1696 107.489 87.805 107.65 88.3701 107.973C88.9378 108.293 89.3857 108.759 89.7139 109.371C90.0446 109.983 90.21 110.726 90.21 111.598ZM88.4951 111.598C88.4951 111.033 88.4105 110.556 88.2412 110.168C88.0745 109.78 87.8389 109.486 87.5342 109.286C87.2295 109.085 86.8727 108.985 86.4639 108.985C86.055 108.985 85.6982 109.085 85.3936 109.286C85.0889 109.486 84.8519 109.78 84.6826 110.168C84.516 110.556 84.4326 111.033 84.4326 111.598C84.4326 112.163 84.516 112.64 84.6826 113.028C84.8519 113.416 85.0889 113.71 85.3936 113.911C85.6982 114.111 86.055 114.211 86.4639 114.211C86.8727 114.211 87.2295 114.111 87.5342 113.911C87.8389 113.71 88.0745 113.416 88.2412 113.028C88.4105 112.64 88.4951 112.163 88.4951 111.598Z" fill="white"/>
</svg>
