<svg width="150" height="150" viewBox="0 0 150 150" fill="none" xmlns="http://www.w3.org/2000/svg">
<path d="M18.5889 104.003L21.3475 133.252H98.4782L101.237 104.003H18.5889Z" fill="#2F1514"/>
<path d="M106.503 48.1696H13.3208L18.5888 104.003H101.237L106.503 48.1696Z" fill="#F8DCA8"/>
<path d="M106.788 143.98H13.0369C11.8609 143.98 10.8756 143.085 10.7649 141.912L1.01029 38.4973C0.891625 37.2413 1.81292 36.128 3.06758 36.0093C4.32492 35.9 5.4369 36.8133 5.55424 38.068L15.1156 139.416H104.709L114.27 38.068C114.388 36.8133 115.5 35.8973 116.757 36.0093C118.013 36.128 118.933 37.2413 118.814 38.4973L109.06 141.912C108.949 143.085 107.965 143.98 106.788 143.98Z" fill="#2F1514"/>
<path d="M146.48 68.3906C143.92 64.0039 139.41 61.1719 133.441 60.2013C127.608 59.2533 121.284 60.3026 114.374 63.3573C114.062 68.3093 113.669 73.9839 113.194 79.9733C117.8 76.8253 122.958 74.0732 127.949 73.2825C129.596 73.0212 130.836 73.2253 131.641 73.8853C132.614 74.6813 133.066 76.1746 132.818 77.7812C132.327 80.9772 129.586 84.1933 126.818 87.2133C122.546 91.8759 117.263 96.1159 111.381 99.6652C110.763 105.448 110.069 111.12 109.292 116.344C111.341 115.405 113.33 114.418 115.23 113.432C123.498 109.136 138.49 99.9439 146.011 86.6399C149.335 80.7599 149.52 73.5959 146.48 68.3906Z" fill="#2F1514"/>
<path d="M31.4229 116.598V108.598H36.8135V109.993H33.1143V111.899H36.5361V113.293H33.1143V115.203H36.8291V116.598H31.4229ZM42.498 110.899C42.4668 110.584 42.3327 110.339 42.0957 110.164C41.8587 109.99 41.5371 109.903 41.1309 109.903C40.8548 109.903 40.6217 109.942 40.4316 110.02C40.2415 110.095 40.0957 110.201 39.9941 110.336C39.8952 110.472 39.8457 110.625 39.8457 110.797C39.8405 110.94 39.8704 111.065 39.9355 111.172C40.0033 111.279 40.0957 111.371 40.2129 111.45C40.3301 111.525 40.4655 111.592 40.6191 111.649C40.7728 111.703 40.9368 111.75 41.1113 111.789L41.8301 111.961C42.179 112.039 42.4993 112.144 42.791 112.274C43.0827 112.404 43.3353 112.564 43.5488 112.754C43.7624 112.944 43.9277 113.168 44.0449 113.426C44.1647 113.684 44.2259 113.98 44.2285 114.313C44.2259 114.802 44.1009 115.227 43.8535 115.586C43.6087 115.943 43.2546 116.22 42.791 116.418C42.3301 116.614 41.7741 116.711 41.123 116.711C40.4772 116.711 39.9147 116.612 39.4355 116.414C38.959 116.217 38.5866 115.924 38.3184 115.536C38.0527 115.145 37.9134 114.662 37.9004 114.086H39.5371C39.5553 114.355 39.6322 114.578 39.7676 114.758C39.9056 114.935 40.0892 115.069 40.3184 115.161C40.5501 115.249 40.8118 115.293 41.1035 115.293C41.39 115.293 41.6387 115.252 41.8496 115.168C42.0632 115.085 42.2285 114.969 42.3457 114.821C42.4629 114.672 42.5215 114.502 42.5215 114.309C42.5215 114.129 42.4681 113.978 42.3613 113.856C42.2572 113.733 42.1035 113.629 41.9004 113.543C41.6999 113.457 41.4538 113.379 41.1621 113.309L40.291 113.09C39.6165 112.926 39.084 112.67 38.6934 112.321C38.3027 111.972 38.1087 111.502 38.1113 110.911C38.1087 110.426 38.2376 110.003 38.498 109.641C38.7611 109.279 39.1217 108.996 39.5801 108.793C40.0384 108.59 40.5592 108.489 41.1426 108.489C41.7363 108.489 42.2546 108.59 42.6973 108.793C43.1426 108.996 43.4889 109.279 43.7363 109.641C43.9837 110.003 44.1113 110.422 44.1191 110.899H42.498ZM45.3662 116.598V108.598H48.5225C49.1292 108.598 49.6462 108.714 50.0732 108.946C50.5003 109.175 50.8258 109.494 51.0498 109.903C51.2764 110.309 51.3896 110.778 51.3896 111.309C51.3896 111.84 51.2751 112.309 51.0459 112.715C50.8167 113.121 50.4847 113.438 50.0498 113.664C49.6175 113.891 49.0941 114.004 48.4795 114.004H46.4678V112.649H48.2061C48.5316 112.649 48.7998 112.593 49.0107 112.481C49.2243 112.366 49.3831 112.209 49.4873 112.008C49.5941 111.805 49.6475 111.572 49.6475 111.309C49.6475 111.043 49.5941 110.812 49.4873 110.614C49.3831 110.413 49.2243 110.258 49.0107 110.149C48.7972 110.037 48.5264 109.981 48.1982 109.981H47.0576V116.598H45.3662ZM52.4883 116.598V108.598H55.6445C56.2487 108.598 56.7643 108.706 57.1914 108.922C57.6211 109.136 57.9479 109.439 58.1719 109.832C58.3984 110.223 58.5117 110.683 58.5117 111.211C58.5117 111.743 58.3971 112.2 58.168 112.582C57.9388 112.963 57.6068 113.254 57.1719 113.457C56.7396 113.661 56.2161 113.762 55.6016 113.762H53.4883V112.403H55.3281C55.651 112.403 55.9193 112.358 56.1328 112.27C56.3464 112.181 56.5052 112.049 56.6094 111.871C56.7161 111.694 56.7695 111.474 56.7695 111.211C56.7695 110.946 56.7161 110.722 56.6094 110.539C56.5052 110.357 56.3451 110.219 56.1289 110.125C55.9154 110.029 55.6458 109.981 55.3203 109.981H54.1797V116.598H52.4883ZM56.8086 112.957L58.7969 116.598H56.9297L54.9844 112.957H56.8086ZM59.707 116.598V108.598H65.0977V109.993H61.3984V111.899H64.8203V113.293H61.3984V115.203H65.1133V116.598H59.707ZM70.7822 110.899C70.751 110.584 70.6169 110.339 70.3799 110.164C70.1429 109.99 69.8213 109.903 69.415 109.903C69.139 109.903 68.9059 109.942 68.7158 110.02C68.5257 110.095 68.3799 110.201 68.2783 110.336C68.1794 110.472 68.1299 110.625 68.1299 110.797C68.1247 110.94 68.1546 111.065 68.2197 111.172C68.2874 111.279 68.3799 111.371 68.4971 111.45C68.6143 111.525 68.7497 111.592 68.9033 111.649C69.057 111.703 69.221 111.75 69.3955 111.789L70.1143 111.961C70.4632 112.039 70.7835 112.144 71.0752 112.274C71.3669 112.404 71.6195 112.564 71.833 112.754C72.0465 112.944 72.2119 113.168 72.3291 113.426C72.4489 113.684 72.5101 113.98 72.5127 114.313C72.5101 114.802 72.3851 115.227 72.1377 115.586C71.8929 115.943 71.5387 116.22 71.0752 116.418C70.6143 116.614 70.0583 116.711 69.4072 116.711C68.7614 116.711 68.1989 116.612 67.7197 116.414C67.2432 116.217 66.8708 115.924 66.6025 115.536C66.3369 115.145 66.1976 114.662 66.1846 114.086H67.8213C67.8395 114.355 67.9163 114.578 68.0518 114.758C68.1898 114.935 68.3734 115.069 68.6025 115.161C68.8343 115.249 69.096 115.293 69.3877 115.293C69.6742 115.293 69.9229 115.252 70.1338 115.168C70.3473 115.085 70.5127 114.969 70.6299 114.821C70.7471 114.672 70.8057 114.502 70.8057 114.309C70.8057 114.129 70.7523 113.978 70.6455 113.856C70.5413 113.733 70.3877 113.629 70.1846 113.543C69.984 113.457 69.738 113.379 69.4463 113.309L68.5752 113.09C67.9007 112.926 67.3682 112.67 66.9775 112.321C66.5869 111.972 66.3929 111.502 66.3955 110.911C66.3929 110.426 66.5218 110.003 66.7822 109.641C67.0452 109.279 67.4059 108.996 67.8643 108.793C68.3226 108.59 68.8434 108.489 69.4268 108.489C70.0205 108.489 70.5387 108.59 70.9814 108.793C71.4268 108.996 71.7731 109.279 72.0205 109.641C72.2679 110.003 72.3955 110.422 72.4033 110.899H70.7822ZM77.9902 110.899C77.959 110.584 77.8249 110.339 77.5879 110.164C77.3509 109.99 77.0293 109.903 76.623 109.903C76.347 109.903 76.1139 109.942 75.9238 110.02C75.7337 110.095 75.5879 110.201 75.4863 110.336C75.3874 110.472 75.3379 110.625 75.3379 110.797C75.3327 110.94 75.3626 111.065 75.4277 111.172C75.4954 111.279 75.5879 111.371 75.7051 111.45C75.8223 111.525 75.9577 111.592 76.1113 111.649C76.265 111.703 76.429 111.75 76.6035 111.789L77.3223 111.961C77.6712 112.039 77.9915 112.144 78.2832 112.274C78.5749 112.404 78.8275 112.564 79.041 112.754C79.2546 112.944 79.4199 113.168 79.5371 113.426C79.6569 113.684 79.7181 113.98 79.7207 114.313C79.7181 114.802 79.5931 115.227 79.3457 115.586C79.1009 115.943 78.7467 116.22 78.2832 116.418C77.8223 116.614 77.2663 116.711 76.6152 116.711C75.9694 116.711 75.4069 116.612 74.9277 116.414C74.4512 116.217 74.0788 115.924 73.8105 115.536C73.5449 115.145 73.4056 114.662 73.3926 114.086H75.0293C75.0475 114.355 75.1243 114.578 75.2598 114.758C75.3978 114.935 75.5814 115.069 75.8105 115.161C76.0423 115.249 76.304 115.293 76.5957 115.293C76.8822 115.293 77.1309 115.252 77.3418 115.168C77.5553 115.085 77.7207 114.969 77.8379 114.821C77.9551 114.672 78.0137 114.502 78.0137 114.309C78.0137 114.129 77.9603 113.978 77.8535 113.856C77.7493 113.733 77.5957 113.629 77.3926 113.543C77.1921 113.457 76.946 113.379 76.6543 113.309L75.7832 113.09C75.1087 112.926 74.5762 112.67 74.1855 112.321C73.7949 111.972 73.6009 111.502 73.6035 110.911C73.6009 110.426 73.7298 110.003 73.9902 109.641C74.2533 109.279 74.6139 108.996 75.0723 108.793C75.5306 108.59 76.0514 108.489 76.6348 108.489C77.2285 108.489 77.7467 108.59 78.1895 108.793C78.6348 108.996 78.9811 109.279 79.2285 109.641C79.4759 110.003 79.6035 110.422 79.6113 110.899H77.9902ZM88.21 112.598C88.21 113.47 88.0446 114.213 87.7139 114.825C87.3857 115.437 86.9378 115.904 86.3701 116.227C85.805 116.547 85.1696 116.707 84.4639 116.707C83.7529 116.707 83.1149 116.546 82.5498 116.223C81.9847 115.9 81.5381 115.433 81.21 114.821C80.8818 114.209 80.7178 113.468 80.7178 112.598C80.7178 111.726 80.8818 110.983 81.21 110.371C81.5381 109.759 81.9847 109.293 82.5498 108.973C83.1149 108.65 83.7529 108.489 84.4639 108.489C85.1696 108.489 85.805 108.65 86.3701 108.973C86.9378 109.293 87.3857 109.759 87.7139 110.371C88.0446 110.983 88.21 111.726 88.21 112.598ZM86.4951 112.598C86.4951 112.033 86.4105 111.556 86.2412 111.168C86.0745 110.78 85.8389 110.486 85.5342 110.286C85.2295 110.085 84.8727 109.985 84.4639 109.985C84.055 109.985 83.6982 110.085 83.3936 110.286C83.0889 110.486 82.8519 110.78 82.6826 111.168C82.516 111.556 82.4326 112.033 82.4326 112.598C82.4326 113.163 82.516 113.64 82.6826 114.028C82.8519 114.416 83.0889 114.71 83.3936 114.911C83.6982 115.111 84.055 115.211 84.4639 115.211C84.8727 115.211 85.2295 115.111 85.5342 114.911C85.8389 114.71 86.0745 114.416 86.2412 114.028C86.4105 113.64 86.4951 113.163 86.4951 112.598Z" fill="white"/>
<path d="M39.4575 67.5264C39.4263 67.2113 39.2922 66.9665 39.0552 66.792C38.8182 66.6175 38.4966 66.5303 38.0903 66.5303C37.8143 66.5303 37.5812 66.5693 37.3911 66.6475C37.201 66.723 37.0552 66.8285 36.9536 66.9639C36.8547 67.0993 36.8052 67.2529 36.8052 67.4248C36.8 67.568 36.8299 67.693 36.895 67.7998C36.9627 67.9066 37.0552 67.999 37.1724 68.0771C37.2896 68.1527 37.425 68.2191 37.5786 68.2764C37.7323 68.3311 37.8963 68.3779 38.0708 68.417L38.7896 68.5889C39.1385 68.667 39.4588 68.7712 39.7505 68.9014C40.0422 69.0316 40.2948 69.1917 40.5083 69.3818C40.7218 69.5719 40.8872 69.7959 41.0044 70.0537C41.1242 70.3115 41.1854 70.6071 41.188 70.9404C41.1854 71.43 41.0604 71.8545 40.813 72.2139C40.5682 72.5706 40.214 72.848 39.7505 73.0459C39.2896 73.2412 38.7336 73.3389 38.0825 73.3389C37.4367 73.3389 36.8742 73.2399 36.395 73.042C35.9185 72.8441 35.5461 72.5511 35.2778 72.1631C35.0122 71.7725 34.8729 71.2894 34.8599 70.7139H36.4966C36.5148 70.9821 36.5916 71.2061 36.7271 71.3857C36.8651 71.5628 37.0487 71.6969 37.2778 71.7881C37.5096 71.8766 37.7713 71.9209 38.063 71.9209C38.3494 71.9209 38.5981 71.8792 38.8091 71.7959C39.0226 71.7126 39.188 71.5967 39.3052 71.4482C39.4224 71.2998 39.481 71.1292 39.481 70.9365C39.481 70.7568 39.4276 70.6058 39.3208 70.4834C39.2166 70.361 39.063 70.2568 38.8599 70.1709C38.6593 70.085 38.4132 70.0068 38.1216 69.9365L37.2505 69.7178C36.576 69.5537 36.0435 69.2972 35.6528 68.9482C35.2622 68.5993 35.0682 68.1292 35.0708 67.5381C35.0682 67.0537 35.1971 66.6305 35.4575 66.2686C35.7205 65.9066 36.0812 65.624 36.5396 65.4209C36.9979 65.2178 37.5187 65.1162 38.1021 65.1162C38.6958 65.1162 39.214 65.2178 39.6567 65.4209C40.1021 65.624 40.4484 65.9066 40.6958 66.2686C40.9432 66.6305 41.0708 67.0498 41.0786 67.5264H39.4575ZM42.021 66.6201V65.2256H48.5913V66.6201H46.1421V73.2256H44.4702V66.6201H42.021ZM49.6733 73.2256V65.2256H55.064V66.6201H51.3647V68.5264H54.7866V69.9209H51.3647V71.8311H55.0796V73.2256H49.6733ZM57.7876 73.2256H55.9751L58.7368 65.2256H60.9165L63.6743 73.2256H61.8618L59.8579 67.0537H59.7954L57.7876 73.2256ZM57.6743 70.0811H61.9556V71.4014H57.6743V70.0811ZM64.6372 65.2256H66.7231L68.9263 70.6006H69.02L71.2231 65.2256H73.3091V73.2256H71.6685V68.0186H71.6021L69.5317 73.1865H68.4146L66.3442 67.999H66.2778V73.2256H64.6372V65.2256ZM74.7026 73.2256V65.2256H80.0933V66.6201H76.394V68.5264H79.8159V69.9209H76.394V71.8311H80.1089V73.2256H74.7026ZM84.2739 73.2256H81.438V65.2256H84.2974C85.1021 65.2256 85.7948 65.3857 86.3755 65.7061C86.9562 66.0238 87.4028 66.4808 87.7153 67.0771C88.0304 67.6735 88.188 68.387 88.188 69.2178C88.188 70.0511 88.0304 70.7673 87.7153 71.3662C87.4028 71.9652 86.9536 72.4248 86.3677 72.7451C85.7843 73.0654 85.0864 73.2256 84.2739 73.2256ZM83.1294 71.7764H84.2036C84.7036 71.7764 85.1242 71.6878 85.4653 71.5107C85.8091 71.3311 86.0669 71.0537 86.2388 70.6787C86.4132 70.3011 86.5005 69.8141 86.5005 69.2178C86.5005 68.6266 86.4132 68.1436 86.2388 67.7686C86.0669 67.3936 85.8104 67.1175 85.4692 66.9404C85.1281 66.7633 84.7075 66.6748 84.2075 66.6748H83.1294V71.7764Z" fill="#2F1514"/>
<path d="M48.3962 77.7803H50.4822L52.6853 83.1553H52.7791L54.9822 77.7803H57.0681V85.7803H55.4275V80.5732H55.3611L53.2908 85.7412H52.1736L50.1033 80.5537H50.0369V85.7803H48.3962V77.7803ZM60.1531 77.7803V85.7803H58.4617V77.7803H60.1531ZM61.5447 85.7803V77.7803H63.2361V84.3857H66.6658V85.7803H61.5447ZM67.7859 85.7803V77.7803H69.4773V81.3076H69.5828L72.4617 77.7803H74.489L71.5203 81.3623L74.5242 85.7803H72.5007L70.3093 82.4912L69.4773 83.5068V85.7803H67.7859Z" fill="#2F1514"/>
</svg>
