<svg width="150" height="150" viewBox="0 0 150 150" fill="none" xmlns="http://www.w3.org/2000/svg">
<path d="M16.1729 67.7971L20.7529 116.344H101.073L105.651 67.7971H16.1729Z" fill="#F8DCA8"/>
<path d="M20.7529 116.344L22.3476 133.252H99.4783L101.073 116.344H20.7529Z" fill="#2F1514"/>
<path d="M16.4555 68.7969L105.369 67.7969L107.503 48.1689H14.3208L16.4555 68.7969Z" fill="#FCD276"/>
<path d="M107.788 143.98H14.0369C12.8609 143.98 11.8756 143.085 11.7649 141.912L2.01029 38.4973C1.89162 37.2413 2.81292 36.128 4.06758 36.0093C5.32492 35.8987 6.4369 36.8133 6.55424 38.068L16.1156 139.416H105.709L115.27 38.068C115.388 36.8133 116.5 35.896 117.757 36.0093C119.013 36.128 119.933 37.2413 119.814 38.4973L110.06 141.912C109.949 143.085 108.965 143.98 107.788 143.98Z" fill="#2F1514"/>
<path d="M147.48 68.3904C144.92 64.0051 140.41 61.1731 134.441 60.2011C128.608 59.2531 122.284 60.3024 115.374 63.3571C115.062 68.3104 114.669 73.9838 114.194 79.9731C118.8 76.8238 123.958 74.0731 128.949 73.2824C130.596 73.0211 131.836 73.2264 132.641 73.8851C133.614 74.6811 134.066 76.1745 133.818 77.7811C133.327 80.9771 130.586 84.1931 127.818 87.2131C123.546 91.8758 118.263 96.1158 112.381 99.6651C111.763 105.449 111.069 111.12 110.292 116.344C112.341 115.405 114.33 114.418 116.23 113.432C124.498 109.136 139.49 99.9438 147.011 86.6398C150.335 80.7598 150.52 73.5958 147.48 68.3904Z" fill="#2F1514"/>
<path d="M32.4226 126.584V118.584H37.8132V119.979H34.114V121.885H37.5359V123.279H34.114V125.189H37.8289V126.584H32.4226ZM43.4978 120.885C43.4666 120.57 43.3324 120.325 43.0955 120.15C42.8585 119.976 42.5369 119.889 42.1306 119.889C41.8546 119.889 41.6215 119.928 41.4314 120.006C41.2413 120.081 41.0955 120.187 40.9939 120.322C40.8949 120.458 40.8455 120.611 40.8455 120.783C40.8403 120.926 40.8702 121.051 40.9353 121.158C41.003 121.265 41.0955 121.357 41.2127 121.436C41.3298 121.511 41.4653 121.577 41.6189 121.635C41.7725 121.689 41.9366 121.736 42.1111 121.775L42.8298 121.947C43.1788 122.025 43.4991 122.13 43.7908 122.26C44.0824 122.39 44.3351 122.55 44.5486 122.74C44.7621 122.93 44.9275 123.154 45.0447 123.412C45.1645 123.67 45.2257 123.966 45.2283 124.299C45.2257 124.788 45.1007 125.213 44.8533 125.572C44.6085 125.929 44.2543 126.206 43.7908 126.404C43.3298 126.6 42.7739 126.697 42.1228 126.697C41.477 126.697 40.9145 126.598 40.4353 126.4C39.9587 126.202 39.5864 125.91 39.3181 125.521C39.0525 125.131 38.9132 124.648 38.9002 124.072H40.5369C40.5551 124.341 40.6319 124.564 40.7673 124.744C40.9054 124.921 41.089 125.055 41.3181 125.146C41.5499 125.235 41.8116 125.279 42.1033 125.279C42.3897 125.279 42.6384 125.238 42.8494 125.154C43.0629 125.071 43.2283 124.955 43.3455 124.807C43.4627 124.658 43.5212 124.488 43.5212 124.295C43.5212 124.115 43.4679 123.964 43.3611 123.842C43.2569 123.719 43.1033 123.615 42.9002 123.529C42.6996 123.443 42.4535 123.365 42.1619 123.295L41.2908 123.076C40.6163 122.912 40.0837 122.656 39.6931 122.307C39.3025 121.958 39.1085 121.488 39.1111 120.896C39.1085 120.412 39.2374 119.989 39.4978 119.627C39.7608 119.265 40.1215 118.982 40.5798 118.779C41.0382 118.576 41.559 118.475 42.1423 118.475C42.7361 118.475 43.2543 118.576 43.697 118.779C44.1423 118.982 44.4887 119.265 44.7361 119.627C44.9835 119.989 45.1111 120.408 45.1189 120.885H43.4978ZM46.366 126.584V118.584H49.5222C50.129 118.584 50.6459 118.7 51.073 118.932C51.5001 119.161 51.8256 119.48 52.0496 119.889C52.2761 120.295 52.3894 120.764 52.3894 121.295C52.3894 121.826 52.2748 122.295 52.0457 122.701C51.8165 123.107 51.4845 123.424 51.0496 123.65C50.6173 123.877 50.0938 123.99 49.4793 123.99H47.4675V122.635H49.2058C49.5313 122.635 49.7996 122.579 50.0105 122.467C50.224 122.352 50.3829 122.195 50.4871 121.994C50.5938 121.791 50.6472 121.558 50.6472 121.295C50.6472 121.029 50.5938 120.798 50.4871 120.6C50.3829 120.399 50.224 120.244 50.0105 120.135C49.797 120.023 49.5261 119.967 49.198 119.967H48.0574V126.584H46.366ZM53.488 126.584V118.584H56.6443C57.2485 118.584 57.7641 118.692 58.1912 118.908C58.6209 119.122 58.9477 119.425 59.1716 119.818C59.3982 120.209 59.5115 120.669 59.5115 121.197C59.5115 121.729 59.3969 122.186 59.1677 122.568C58.9386 122.949 58.6065 123.24 58.1716 123.443C57.7393 123.646 57.2159 123.748 56.6013 123.748H54.488V122.389H56.3279C56.6508 122.389 56.919 122.344 57.1326 122.256C57.3461 122.167 57.505 122.035 57.6091 121.857C57.7159 121.68 57.7693 121.46 57.7693 121.197C57.7693 120.932 57.7159 120.708 57.6091 120.525C57.505 120.343 57.3448 120.205 57.1287 120.111C56.9151 120.015 56.6456 119.967 56.3201 119.967H55.1795V126.584H53.488ZM57.8084 122.943L59.7966 126.584H57.9295L55.9841 122.943H57.8084ZM60.7068 126.584V118.584H66.0974V119.979H62.3982V121.885H65.8201V123.279H62.3982V125.189H66.113V126.584H60.7068ZM71.782 120.885C71.7507 120.57 71.6166 120.325 71.3796 120.15C71.1427 119.976 70.8211 119.889 70.4148 119.889C70.1388 119.889 69.9057 119.928 69.7156 120.006C69.5255 120.081 69.3796 120.187 69.2781 120.322C69.1791 120.458 69.1296 120.611 69.1296 120.783C69.1244 120.926 69.1544 121.051 69.2195 121.158C69.2872 121.265 69.3796 121.357 69.4968 121.436C69.614 121.511 69.7494 121.577 69.9031 121.635C70.0567 121.689 70.2208 121.736 70.3953 121.775L71.114 121.947C71.463 122.025 71.7833 122.13 72.075 122.26C72.3666 122.39 72.6192 122.55 72.8328 122.74C73.0463 122.93 73.2117 123.154 73.3289 123.412C73.4487 123.67 73.5099 123.966 73.5125 124.299C73.5099 124.788 73.3849 125.213 73.1375 125.572C72.8927 125.929 72.5385 126.206 72.075 126.404C71.614 126.6 71.058 126.697 70.407 126.697C69.7612 126.697 69.1987 126.598 68.7195 126.4C68.2429 126.202 67.8705 125.91 67.6023 125.521C67.3367 125.131 67.1974 124.648 67.1843 124.072H68.8211C68.8393 124.341 68.9161 124.564 69.0515 124.744C69.1895 124.921 69.3731 125.055 69.6023 125.146C69.8341 125.235 70.0958 125.279 70.3875 125.279C70.6739 125.279 70.9226 125.238 71.1336 125.154C71.3471 125.071 71.5125 124.955 71.6296 124.807C71.7468 124.658 71.8054 124.488 71.8054 124.295C71.8054 124.115 71.752 123.964 71.6453 123.842C71.5411 123.719 71.3875 123.615 71.1843 123.529C70.9838 123.443 70.7377 123.365 70.4461 123.295L69.575 123.076C68.9005 122.912 68.3679 122.656 67.9773 122.307C67.5867 121.958 67.3927 121.488 67.3953 120.896C67.3927 120.412 67.5216 119.989 67.782 119.627C68.045 119.265 68.4057 118.982 68.864 118.779C69.3224 118.576 69.8432 118.475 70.4265 118.475C71.0203 118.475 71.5385 118.576 71.9812 118.779C72.4265 118.982 72.7729 119.265 73.0203 119.627C73.2677 119.989 73.3953 120.408 73.4031 120.885H71.782ZM78.99 120.885C78.9587 120.57 78.8246 120.325 78.5877 120.15C78.3507 119.976 78.0291 119.889 77.6228 119.889C77.3468 119.889 77.1137 119.928 76.9236 120.006C76.7335 120.081 76.5877 120.187 76.4861 120.322C76.3871 120.458 76.3377 120.611 76.3377 120.783C76.3324 120.926 76.3624 121.051 76.4275 121.158C76.4952 121.265 76.5877 121.357 76.7048 121.436C76.822 121.511 76.9574 121.577 77.1111 121.635C77.2647 121.689 77.4288 121.736 77.6033 121.775L78.322 121.947C78.671 122.025 78.9913 122.13 79.283 122.26C79.5746 122.39 79.8272 122.55 80.0408 122.74C80.2543 122.93 80.4197 123.154 80.5369 123.412C80.6567 123.67 80.7179 123.966 80.7205 124.299C80.7179 124.788 80.5929 125.213 80.3455 125.572C80.1007 125.929 79.7465 126.206 79.283 126.404C78.822 126.6 78.266 126.697 77.615 126.697C76.9692 126.697 76.4067 126.598 75.9275 126.4C75.4509 126.202 75.0785 125.91 74.8103 125.521C74.5447 125.131 74.4054 124.648 74.3923 124.072H76.0291C76.0473 124.341 76.1241 124.564 76.2595 124.744C76.3976 124.921 76.5811 125.055 76.8103 125.146C77.0421 125.235 77.3038 125.279 77.5955 125.279C77.8819 125.279 78.1306 125.238 78.3416 125.154C78.5551 125.071 78.7205 124.955 78.8377 124.807C78.9548 124.658 79.0134 124.488 79.0134 124.295C79.0134 124.115 78.9601 123.964 78.8533 123.842C78.7491 123.719 78.5955 123.615 78.3923 123.529C78.1918 123.443 77.9457 123.365 77.6541 123.295L76.783 123.076C76.1085 122.912 75.5759 122.656 75.1853 122.307C74.7947 121.958 74.6007 121.488 74.6033 120.896C74.6007 120.412 74.7296 119.989 74.99 119.627C75.253 119.265 75.6137 118.982 76.072 118.779C76.5304 118.576 77.0512 118.475 77.6345 118.475C78.2283 118.475 78.7465 118.576 79.1892 118.779C79.6345 118.982 79.9809 119.265 80.2283 119.627C80.4757 119.989 80.6033 120.408 80.6111 120.885H78.99ZM89.2097 122.584C89.2097 123.456 89.0444 124.199 88.7136 124.811C88.3855 125.423 87.9376 125.89 87.3699 126.213C86.8048 126.533 86.1694 126.693 85.4636 126.693C84.7527 126.693 84.1147 126.532 83.5496 126.209C82.9845 125.886 82.5378 125.419 82.2097 124.807C81.8816 124.195 81.7175 123.454 81.7175 122.584C81.7175 121.712 81.8816 120.969 82.2097 120.357C82.5378 119.745 82.9845 119.279 83.5496 118.959C84.1147 118.636 84.7527 118.475 85.4636 118.475C86.1694 118.475 86.8048 118.636 87.3699 118.959C87.9376 119.279 88.3855 119.745 88.7136 120.357C89.0444 120.969 89.2097 121.712 89.2097 122.584ZM87.4949 122.584C87.4949 122.019 87.4102 121.542 87.241 121.154C87.0743 120.766 86.8386 120.472 86.5339 120.271C86.2293 120.071 85.8725 119.971 85.4636 119.971C85.0548 119.971 84.698 120.071 84.3933 120.271C84.0886 120.472 83.8517 120.766 83.6824 121.154C83.5157 121.542 83.4324 122.019 83.4324 122.584C83.4324 123.149 83.5157 123.626 83.6824 124.014C83.8517 124.402 84.0886 124.696 84.3933 124.896C84.698 125.097 85.0548 125.197 85.4636 125.197C85.8725 125.197 86.2293 125.097 86.5339 124.896C86.8386 124.696 87.0743 124.402 87.241 124.014C87.4102 123.626 87.4949 123.149 87.4949 122.584Z" fill="white"/>
<path d="M30.4575 53.3184H32.5434L34.7466 58.6934H34.8403L37.0434 53.3184H39.1294V61.3184H37.4888V56.1114H37.4224L35.352 61.2793H34.2349L32.1645 56.0918H32.0981V61.3184H30.4575V53.3184ZM42.2143 53.3184V61.3184H40.5229V53.3184H42.2143ZM43.6059 61.3184V53.3184H45.2974V59.9239H48.727V61.3184H43.6059ZM49.8472 61.3184V53.3184H51.5386V56.8457H51.644L54.5229 53.3184H56.5503L53.5815 56.9004L56.5854 61.3184H54.562L52.3706 58.0293L51.5386 59.045V61.3184H49.8472ZM59.977 61.3184V53.3184H65.2739V54.7129H61.6684V56.6192H64.9224V58.0137H61.6684V61.3184H59.977ZM73.7632 57.3184C73.7632 58.1908 73.5978 58.933 73.2671 59.545C72.939 60.1569 72.491 60.6244 71.9233 60.9473C71.3582 61.2676 70.7228 61.4278 70.0171 61.4278C69.3061 61.4278 68.6681 61.2663 68.103 60.9434C67.5379 60.6205 67.0913 60.153 66.7632 59.5411C66.4351 58.9291 66.271 58.1882 66.271 57.3184C66.271 56.446 66.4351 55.7038 66.7632 55.0918C67.0913 54.4799 67.5379 54.0137 68.103 53.6934C68.6681 53.3705 69.3061 53.209 70.0171 53.209C70.7228 53.209 71.3582 53.3705 71.9233 53.6934C72.491 54.0137 72.939 54.4799 73.2671 55.0918C73.5978 55.7038 73.7632 56.446 73.7632 57.3184ZM72.0483 57.3184C72.0483 56.7533 71.9637 56.2767 71.7944 55.8887C71.6278 55.5007 71.3921 55.2064 71.0874 55.0059C70.7827 54.8054 70.4259 54.7051 70.0171 54.7051C69.6082 54.7051 69.2515 54.8054 68.9468 55.0059C68.6421 55.2064 68.4051 55.5007 68.2358 55.8887C68.0692 56.2767 67.9858 56.7533 67.9858 57.3184C67.9858 57.8835 68.0692 58.3601 68.2358 58.7481C68.4051 59.1361 68.6421 59.4304 68.9468 59.6309C69.2515 59.8314 69.6082 59.9317 70.0171 59.9317C70.4259 59.9317 70.7827 59.8314 71.0874 59.6309C71.3921 59.4304 71.6278 59.1361 71.7944 58.7481C71.9637 58.3601 72.0483 57.8835 72.0483 57.3184ZM75.9438 61.3184H74.1313L76.8931 53.3184H79.0727L81.8306 61.3184H80.0181L78.0142 55.1465H77.9517L75.9438 61.3184ZM75.8306 58.1739H80.1118V59.4942H75.8306V58.1739ZM82.7934 53.3184H84.8794L87.0825 58.6934H87.1763L89.3794 53.3184H91.4653V61.3184H89.8247V56.1114H89.7583L87.688 61.2793H86.5708L84.5005 56.0918H84.4341V61.3184H82.7934V53.3184Z" fill="white"/>
<path d="M40.4573 85.4541C40.426 85.139 40.2919 84.8942 40.0549 84.7197C39.8179 84.5452 39.4963 84.458 39.0901 84.458C38.814 84.458 38.581 84.497 38.3909 84.5752C38.2007 84.6507 38.0549 84.7562 37.9534 84.8916C37.8544 85.027 37.8049 85.1806 37.8049 85.3525C37.7997 85.4957 37.8297 85.6207 37.8948 85.7275C37.9625 85.8343 38.0549 85.9267 38.1721 86.0049C38.2893 86.0804 38.4247 86.1468 38.5784 86.2041C38.732 86.2588 38.8961 86.3056 39.0705 86.3447L39.7893 86.5166C40.1382 86.5947 40.4586 86.6989 40.7502 86.8291C41.0419 86.9593 41.2945 87.1194 41.508 87.3095C41.7216 87.4996 41.8869 87.7236 42.0041 87.9814C42.1239 88.2392 42.1851 88.5348 42.1877 88.8681C42.1851 89.3577 42.0601 89.7822 41.8127 90.1416C41.5679 90.4983 41.2138 90.7757 40.7502 90.9736C40.2893 91.1689 39.7333 91.2666 39.0823 91.2666C38.4364 91.2666 37.8739 91.1676 37.3948 90.9697C36.9182 90.7718 36.5458 90.4788 36.2776 90.0908C36.0119 89.7002 35.8726 89.2171 35.8596 88.6416H37.4963C37.5146 88.9098 37.5914 89.1338 37.7268 89.3134C37.8648 89.4905 38.0484 89.6246 38.2776 89.7158C38.5093 89.8043 38.7711 89.8486 39.0627 89.8486C39.3492 89.8486 39.5979 89.8069 39.8088 89.7236C40.0224 89.6403 40.1877 89.5244 40.3049 89.3759C40.4221 89.2275 40.4807 89.0569 40.4807 88.8642C40.4807 88.6845 40.4273 88.5335 40.3205 88.4111C40.2164 88.2887 40.0627 88.1845 39.8596 88.0986C39.6591 88.0127 39.413 87.9345 39.1213 87.8642L38.2502 87.6455C37.5757 87.4814 37.0432 87.2249 36.6526 86.8759C36.2619 86.527 36.0679 86.0569 36.0705 85.4658C36.0679 84.9814 36.1968 84.5582 36.4573 84.1963C36.7203 83.8343 37.081 83.5517 37.5393 83.3486C37.9976 83.1455 38.5185 83.0439 39.1018 83.0439C39.6955 83.0439 40.2138 83.1455 40.6565 83.3486C41.1018 83.5517 41.4481 83.8343 41.6955 84.1963C41.9429 84.5582 42.0705 84.9775 42.0784 85.4541H40.4573ZM43.0207 84.5478V83.1533H49.591V84.5478H47.1418V91.1533H45.47V84.5478H43.0207ZM50.6731 91.1533V83.1533H56.0637V84.5478H52.3645V86.4541H55.7864V87.8486H52.3645V89.7588H56.0793V91.1533H50.6731ZM58.7873 91.1533H56.9748L59.7366 83.1533H61.9162L64.6741 91.1533H62.8616L60.8577 84.9814H60.7952L58.7873 91.1533ZM58.6741 88.0088H62.9553V89.3291H58.6741V88.0088ZM65.6369 83.1533H67.7229L69.926 88.5283H70.0198L72.2229 83.1533H74.3088V91.1533H72.6682V85.9463H72.6018L70.5315 91.1142H69.4143L67.344 85.9267H67.2776V91.1533H65.6369V83.1533ZM75.7024 91.1533V83.1533H81.093V84.5478H77.3938V86.4541H80.8157V87.8486H77.3938V89.7588H81.1086V91.1533H75.7024ZM85.2737 91.1533H82.4377V83.1533H85.2971C86.1018 83.1533 86.7945 83.3134 87.3752 83.6338C87.956 83.9515 88.4026 84.4085 88.7151 85.0049C89.0302 85.6012 89.1877 86.3147 89.1877 87.1455C89.1877 87.9788 89.0302 88.695 88.7151 89.2939C88.4026 89.8929 87.9534 90.3525 87.3674 90.6728C86.7841 90.9931 86.0862 91.1533 85.2737 91.1533ZM84.1291 89.7041H85.2034C85.7034 89.7041 86.1239 89.6155 86.4651 89.4384C86.8088 89.2588 87.0666 88.9814 87.2385 88.6064C87.413 88.2288 87.5002 87.7418 87.5002 87.1455C87.5002 86.5543 87.413 86.0713 87.2385 85.6963C87.0666 85.3213 86.8101 85.0452 86.469 84.8681C86.1278 84.6911 85.7073 84.6025 85.2073 84.6025H84.1291V89.7041Z" fill="#2F1514"/>
<path d="M49.396 95.708H51.4819L53.6851 101.083H53.7788L55.9819 95.708H58.0679V103.708H56.4273V98.501H56.3609L54.2905 103.669H53.1734L51.103 98.4814H51.0366V103.708H49.396V95.708ZM61.1528 95.708V103.708H59.4614V95.708H61.1528ZM62.5444 103.708V95.708H64.2359V102.313H67.6655V103.708H62.5444ZM68.7857 103.708V95.708H70.4771V99.2354H70.5825L73.4614 95.708H75.4888L72.52 99.29L75.5239 103.708H73.5005L71.3091 100.419L70.4771 101.435V103.708H68.7857Z" fill="#2F1514"/>
</svg>
