<svg width="150" height="150" viewBox="0 0 150 150" fill="none" xmlns="http://www.w3.org/2000/svg">
<path d="M13.3223 48.11C45.1623 51.4633 76.5556 55.1313 106.505 48.11C111.222 -3.20209 8.88895 -2.20209 13.3223 48.11Z" fill="#FCD276"/>
<path d="M103.822 76.5527L106.505 48.1101H13.3223L16.0049 76.5527H103.822Z" fill="#F8DCA8"/>
<path d="M101.14 104.996L103.822 76.5529H16.0049L18.6889 104.996H101.14Z" fill="#721E1C"/>
<path d="M18.6649 104.749L21.3476 133.193H98.4783L101.162 104.749H18.6649Z" fill="#2F1514"/>
<path d="M106.789 143.922H13.0383C11.861 143.922 10.8756 143.026 10.765 141.853L1.01029 38.4379C0.891623 37.1819 1.81295 36.0686 3.06895 35.9512C4.32362 35.8339 5.437 36.7539 5.55567 38.0085L15.1156 139.357H104.712L114.272 38.0085C114.39 36.7539 115.498 35.8312 116.758 35.9512C118.014 36.0686 118.936 37.1819 118.817 38.4379L109.061 141.853C108.95 143.026 107.966 143.922 106.789 143.922Z" fill="#2F1514"/>
<path d="M146.481 68.3302C143.92 63.9462 139.412 61.1142 133.444 60.1422C127.609 59.1942 121.285 60.2436 114.377 63.2983C114.062 68.2503 113.672 73.9249 113.194 79.9142C117.801 76.7649 122.958 74.0143 127.95 73.2236C129.597 72.9623 130.837 73.1662 131.642 73.8249C132.616 74.6222 133.068 76.1156 132.821 77.7222C132.329 80.9182 129.586 84.1343 126.82 87.1543C122.548 91.8169 117.265 96.0569 111.382 99.6062C110.765 105.39 110.07 111.061 109.293 116.286C111.341 115.346 113.332 114.359 115.23 113.373C123.5 109.077 138.492 99.8849 146.012 86.5809C149.337 80.7009 149.521 73.5369 146.481 68.3302Z" fill="#2F1514"/>
<path d="M31.4243 119.112V111.112H36.8149V112.507H33.1157V114.413H36.5376V115.807H33.1157V117.718H36.8306V119.112H31.4243ZM42.4995 113.413C42.4683 113.098 42.3341 112.853 42.0972 112.678C41.8602 112.504 41.5386 112.417 41.1323 112.417C40.8563 112.417 40.6232 112.456 40.4331 112.534C40.243 112.609 40.0972 112.715 39.9956 112.85C39.8966 112.986 39.8472 113.139 39.8472 113.311C39.842 113.455 39.8719 113.58 39.937 113.686C40.0047 113.793 40.0972 113.885 40.2144 113.964C40.3315 114.039 40.467 114.106 40.6206 114.163C40.7743 114.218 40.9383 114.264 41.1128 114.303L41.8315 114.475C42.1805 114.553 42.5008 114.658 42.7925 114.788C43.0841 114.918 43.3368 115.078 43.5503 115.268C43.7638 115.458 43.9292 115.682 44.0464 115.94C44.1662 116.198 44.2274 116.494 44.23 116.827C44.2274 117.316 44.1024 117.741 43.855 118.1C43.6102 118.457 43.256 118.734 42.7925 118.932C42.3315 119.128 41.7756 119.225 41.1245 119.225C40.4787 119.225 39.9162 119.126 39.437 118.928C38.9604 118.731 38.5881 118.438 38.3198 118.05C38.0542 117.659 37.9149 117.176 37.9019 116.6H39.5386C39.5568 116.869 39.6336 117.093 39.769 117.272C39.9071 117.449 40.0907 117.583 40.3198 117.675C40.5516 117.763 40.8133 117.807 41.105 117.807C41.3914 117.807 41.6401 117.766 41.8511 117.682C42.0646 117.599 42.23 117.483 42.3472 117.335C42.4644 117.186 42.5229 117.016 42.5229 116.823C42.5229 116.643 42.4696 116.492 42.3628 116.37C42.2586 116.247 42.105 116.143 41.9019 116.057C41.7013 115.971 41.4552 115.893 41.1636 115.823L40.2925 115.604C39.618 115.44 39.0854 115.184 38.6948 114.835C38.3042 114.486 38.1102 114.016 38.1128 113.425C38.1102 112.94 38.2391 112.517 38.4995 112.155C38.7625 111.793 39.1232 111.51 39.5815 111.307C40.0399 111.104 40.5607 111.003 41.144 111.003C41.7378 111.003 42.256 111.104 42.6987 111.307C43.144 111.51 43.4904 111.793 43.7378 112.155C43.9852 112.517 44.1128 112.936 44.1206 113.413H42.4995ZM45.3677 119.112V111.112H48.5239C49.1307 111.112 49.6476 111.228 50.0747 111.46C50.5018 111.689 50.8273 112.008 51.0513 112.417C51.2778 112.823 51.3911 113.292 51.3911 113.823C51.3911 114.354 51.2765 114.823 51.0474 115.229C50.8182 115.635 50.4862 115.952 50.0513 116.178C49.619 116.405 49.0955 116.518 48.481 116.518H46.4692V115.163H48.2075C48.533 115.163 48.8013 115.107 49.0122 114.995C49.2257 114.88 49.3846 114.723 49.4888 114.522C49.5955 114.319 49.6489 114.086 49.6489 113.823C49.6489 113.557 49.5955 113.326 49.4888 113.128C49.3846 112.927 49.2257 112.772 49.0122 112.663C48.7987 112.551 48.5278 112.495 48.1997 112.495H47.0591V119.112H45.3677ZM52.4897 119.112V111.112H55.646C56.2502 111.112 56.7658 111.22 57.1929 111.436C57.6226 111.65 57.9494 111.953 58.1733 112.346C58.3999 112.737 58.5132 113.197 58.5132 113.725C58.5132 114.257 58.3986 114.714 58.1694 115.096C57.9403 115.477 57.6082 115.768 57.1733 115.971C56.741 116.175 56.2176 116.276 55.603 116.276H53.4897V114.917H55.3296C55.6525 114.917 55.9207 114.872 56.1343 114.784C56.3478 114.695 56.5067 114.563 56.6108 114.385C56.7176 114.208 56.771 113.988 56.771 113.725C56.771 113.46 56.7176 113.236 56.6108 113.053C56.5067 112.871 56.3465 112.733 56.1304 112.639C55.9168 112.543 55.6473 112.495 55.3218 112.495H54.1812V119.112H52.4897ZM56.8101 115.471L58.7983 119.112H56.9312L54.9858 115.471H56.8101ZM59.7085 119.112V111.112H65.0991V112.507H61.3999V114.413H64.8218V115.807H61.3999V117.718H65.1147V119.112H59.7085ZM70.7837 113.413C70.7524 113.098 70.6183 112.853 70.3813 112.678C70.1444 112.504 69.8228 112.417 69.4165 112.417C69.1405 112.417 68.9074 112.456 68.7173 112.534C68.5272 112.609 68.3813 112.715 68.2798 112.85C68.1808 112.986 68.1313 113.139 68.1313 113.311C68.1261 113.455 68.1561 113.58 68.2212 113.686C68.2889 113.793 68.3813 113.885 68.4985 113.964C68.6157 114.039 68.7511 114.106 68.9048 114.163C69.0584 114.218 69.2225 114.264 69.397 114.303L70.1157 114.475C70.4647 114.553 70.785 114.658 71.0767 114.788C71.3683 114.918 71.6209 115.078 71.8345 115.268C72.048 115.458 72.2134 115.682 72.3306 115.94C72.4504 116.198 72.5116 116.494 72.5142 116.827C72.5116 117.316 72.3866 117.741 72.1392 118.1C71.8944 118.457 71.5402 118.734 71.0767 118.932C70.6157 119.128 70.0597 119.225 69.4087 119.225C68.7629 119.225 68.2004 119.126 67.7212 118.928C67.2446 118.731 66.8722 118.438 66.604 118.05C66.3384 117.659 66.1991 117.176 66.186 116.6H67.8228C67.841 116.869 67.9178 117.093 68.0532 117.272C68.1912 117.449 68.3748 117.583 68.604 117.675C68.8358 117.763 69.0975 117.807 69.3892 117.807C69.6756 117.807 69.9243 117.766 70.1353 117.682C70.3488 117.599 70.5142 117.483 70.6313 117.335C70.7485 117.186 70.8071 117.016 70.8071 116.823C70.8071 116.643 70.7537 116.492 70.647 116.37C70.5428 116.247 70.3892 116.143 70.186 116.057C69.9855 115.971 69.7394 115.893 69.4478 115.823L68.5767 115.604C67.9022 115.44 67.3696 115.184 66.979 114.835C66.5884 114.486 66.3944 114.016 66.397 113.425C66.3944 112.94 66.5233 112.517 66.7837 112.155C67.0467 111.793 67.4074 111.51 67.8657 111.307C68.3241 111.104 68.8449 111.003 69.4282 111.003C70.022 111.003 70.5402 111.104 70.9829 111.307C71.4282 111.51 71.7746 111.793 72.022 112.155C72.2694 112.517 72.397 112.936 72.4048 113.413H70.7837ZM77.9917 113.413C77.9604 113.098 77.8263 112.853 77.5894 112.678C77.3524 112.504 77.0308 112.417 76.6245 112.417C76.3485 112.417 76.1154 112.456 75.9253 112.534C75.7352 112.609 75.5894 112.715 75.4878 112.85C75.3888 112.986 75.3394 113.139 75.3394 113.311C75.3341 113.455 75.3641 113.58 75.4292 113.686C75.4969 113.793 75.5894 113.885 75.7065 113.964C75.8237 114.039 75.9591 114.106 76.1128 114.163C76.2664 114.218 76.4305 114.264 76.605 114.303L77.3237 114.475C77.6727 114.553 77.993 114.658 78.2847 114.788C78.5763 114.918 78.8289 115.078 79.0425 115.268C79.256 115.458 79.4214 115.682 79.5386 115.94C79.6584 116.198 79.7196 116.494 79.7222 116.827C79.7196 117.316 79.5946 117.741 79.3472 118.1C79.1024 118.457 78.7482 118.734 78.2847 118.932C77.8237 119.128 77.2677 119.225 76.6167 119.225C75.9709 119.225 75.4084 119.126 74.9292 118.928C74.4526 118.731 74.0802 118.438 73.812 118.05C73.5464 117.659 73.4071 117.176 73.394 116.6H75.0308C75.049 116.869 75.1258 117.093 75.2612 117.272C75.3993 117.449 75.5828 117.583 75.812 117.675C76.0438 117.763 76.3055 117.807 76.5972 117.807C76.8836 117.807 77.1323 117.766 77.3433 117.682C77.5568 117.599 77.7222 117.483 77.8394 117.335C77.9565 117.186 78.0151 117.016 78.0151 116.823C78.0151 116.643 77.9618 116.492 77.855 116.37C77.7508 116.247 77.5972 116.143 77.394 116.057C77.1935 115.971 76.9474 115.893 76.6558 115.823L75.7847 115.604C75.1102 115.44 74.5776 115.184 74.187 114.835C73.7964 114.486 73.6024 114.016 73.605 113.425C73.6024 112.94 73.7313 112.517 73.9917 112.155C74.2547 111.793 74.6154 111.51 75.0737 111.307C75.5321 111.104 76.0529 111.003 76.6362 111.003C77.23 111.003 77.7482 111.104 78.1909 111.307C78.6362 111.51 78.9826 111.793 79.23 112.155C79.4774 112.517 79.605 112.936 79.6128 113.413H77.9917ZM88.2114 115.112C88.2114 115.984 88.0461 116.727 87.7153 117.339C87.3872 117.951 86.9393 118.418 86.3716 118.741C85.8065 119.061 85.1711 119.221 84.4653 119.221C83.7544 119.221 83.1164 119.06 82.5513 118.737C81.9862 118.414 81.5396 117.947 81.2114 117.335C80.8833 116.723 80.7192 115.982 80.7192 115.112C80.7192 114.24 80.8833 113.497 81.2114 112.885C81.5396 112.274 81.9862 111.807 82.5513 111.487C83.1164 111.164 83.7544 111.003 84.4653 111.003C85.1711 111.003 85.8065 111.164 86.3716 111.487C86.9393 111.807 87.3872 112.274 87.7153 112.885C88.0461 113.497 88.2114 114.24 88.2114 115.112ZM86.4966 115.112C86.4966 114.547 86.4119 114.07 86.2427 113.682C86.076 113.294 85.8403 113 85.5356 112.8C85.231 112.599 84.8742 112.499 84.4653 112.499C84.0565 112.499 83.6997 112.599 83.395 112.8C83.0903 113 82.8534 113.294 82.6841 113.682C82.5174 114.07 82.4341 114.547 82.4341 115.112C82.4341 115.677 82.5174 116.154 82.6841 116.542C82.8534 116.93 83.0903 117.224 83.395 117.425C83.6997 117.625 84.0565 117.725 84.4653 117.725C84.8742 117.725 85.231 117.625 85.5356 117.425C85.8403 117.224 86.076 116.93 86.2427 116.542C86.4119 116.154 86.4966 115.677 86.4966 115.112Z" fill="white"/>
<path d="M34.1578 90.6152H32.4469C32.4156 90.3939 32.3518 90.1973 32.2555 90.0254C32.1591 89.8509 32.0354 89.7025 31.8844 89.5801C31.7333 89.4577 31.5588 89.3639 31.3609 89.2988C31.1656 89.2337 30.9534 89.2012 30.7242 89.2012C30.3102 89.2012 29.9495 89.304 29.6422 89.5098C29.3349 89.7129 29.0966 90.0098 28.9273 90.4004C28.7581 90.7884 28.6734 91.2598 28.6734 91.8145C28.6734 92.3848 28.7581 92.8639 28.9273 93.252C29.0992 93.64 29.3388 93.9329 29.6461 94.1309C29.9534 94.3288 30.3088 94.4277 30.7125 94.4277C30.9391 94.4277 31.1487 94.3978 31.3414 94.3379C31.5367 94.278 31.7099 94.1908 31.8609 94.0762C32.012 93.959 32.137 93.8171 32.2359 93.6504C32.3375 93.4837 32.4078 93.2936 32.4469 93.0801L34.1578 93.0879C34.1135 93.4551 34.0029 93.8092 33.8258 94.1504C33.6513 94.4889 33.4156 94.7923 33.1187 95.0605C32.8245 95.3262 32.4729 95.5371 32.0641 95.6934C31.6578 95.847 31.1982 95.9238 30.6852 95.9238C29.9716 95.9238 29.3336 95.7624 28.7711 95.4395C28.2112 95.1165 27.7685 94.6491 27.443 94.0371C27.12 93.4251 26.9586 92.6842 26.9586 91.8145C26.9586 90.9421 27.1227 90.1999 27.4508 89.5879C27.7789 88.9759 28.2242 88.5098 28.7867 88.1895C29.3492 87.8665 29.982 87.7051 30.6852 87.7051C31.1487 87.7051 31.5784 87.7702 31.9742 87.9004C32.3727 88.0306 32.7255 88.2207 33.0328 88.4707C33.3401 88.7181 33.5901 89.0215 33.7828 89.3809C33.9781 89.7402 34.1031 90.1517 34.1578 90.6152ZM35.3707 95.8145V87.8145H37.0621V91.1152H40.4957V87.8145H42.1832V95.8145H40.4957V92.5098H37.0621V95.8145H35.3707ZM50.9293 91.8145C50.9293 92.6868 50.7639 93.429 50.4332 94.041C50.1051 94.653 49.6572 95.1204 49.0894 95.4434C48.5243 95.7637 47.8889 95.9238 47.1832 95.9238C46.4723 95.9238 45.8342 95.7624 45.2691 95.4395C44.704 95.1165 44.2574 94.6491 43.9293 94.0371C43.6012 93.4251 43.4371 92.6842 43.4371 91.8145C43.4371 90.9421 43.6012 90.1999 43.9293 89.5879C44.2574 88.9759 44.704 88.5098 45.2691 88.1895C45.8342 87.8665 46.4723 87.7051 47.1832 87.7051C47.8889 87.7051 48.5243 87.8665 49.0894 88.1895C49.6572 88.5098 50.1051 88.9759 50.4332 89.5879C50.7639 90.1999 50.9293 90.9421 50.9293 91.8145ZM49.2144 91.8145C49.2144 91.2493 49.1298 90.7728 48.9605 90.3848C48.7939 89.9967 48.5582 89.7025 48.2535 89.502C47.9488 89.3014 47.5921 89.2012 47.1832 89.2012C46.7743 89.2012 46.4176 89.3014 46.1129 89.502C45.8082 89.7025 45.5712 89.9967 45.4019 90.3848C45.2353 90.7728 45.1519 91.2493 45.1519 91.8145C45.1519 92.3796 45.2353 92.8561 45.4019 93.2441C45.5712 93.6322 45.8082 93.9264 46.1129 94.127C46.4176 94.3275 46.7743 94.4277 47.1832 94.4277C47.5921 94.4277 47.9488 94.3275 48.2535 94.127C48.5582 93.9264 48.7939 93.6322 48.9605 93.2441C49.1298 92.8561 49.2144 92.3796 49.2144 91.8145ZM59.2408 90.6152H57.5299C57.4986 90.3939 57.4348 90.1973 57.3385 90.0254C57.2421 89.8509 57.1184 89.7025 56.9674 89.5801C56.8163 89.4577 56.6419 89.3639 56.4439 89.2988C56.2486 89.2337 56.0364 89.2012 55.8072 89.2012C55.3932 89.2012 55.0325 89.304 54.7252 89.5098C54.4179 89.7129 54.1796 90.0098 54.0103 90.4004C53.8411 90.7884 53.7564 91.2598 53.7564 91.8145C53.7564 92.3848 53.8411 92.8639 54.0103 93.252C54.1822 93.64 54.4218 93.9329 54.7291 94.1309C55.0364 94.3288 55.3919 94.4277 55.7955 94.4277C56.0221 94.4277 56.2317 94.3978 56.4244 94.3379C56.6197 94.278 56.7929 94.1908 56.9439 94.0762C57.095 93.959 57.22 93.8171 57.3189 93.6504C57.4205 93.4837 57.4908 93.2936 57.5299 93.0801L59.2408 93.0879C59.1965 93.4551 59.0859 93.8092 58.9088 94.1504C58.7343 94.4889 58.4986 94.7923 58.2018 95.0605C57.9075 95.3262 57.5559 95.5371 57.1471 95.6934C56.7408 95.847 56.2812 95.9238 55.7682 95.9238C55.0546 95.9238 54.4166 95.7624 53.8541 95.4395C53.2942 95.1165 52.8515 94.6491 52.526 94.0371C52.2031 93.4251 52.0416 92.6842 52.0416 91.8145C52.0416 90.9421 52.2057 90.1999 52.5338 89.5879C52.8619 88.9759 53.3072 88.5098 53.8697 88.1895C54.4322 87.8665 55.065 87.7051 55.7682 87.7051C56.2317 87.7051 56.6614 87.7702 57.0572 87.9004C57.4557 88.0306 57.8085 88.2207 58.1158 88.4707C58.4231 88.7181 58.6731 89.0215 58.8658 89.3809C59.0611 89.7402 59.1861 90.1517 59.2408 90.6152ZM67.8053 91.8145C67.8053 92.6868 67.6399 93.429 67.3092 94.041C66.981 94.653 66.5331 95.1204 65.9654 95.4434C65.4003 95.7637 64.7649 95.9238 64.0592 95.9238C63.3482 95.9238 62.7102 95.7624 62.1451 95.4395C61.58 95.1165 61.1334 94.6491 60.8053 94.0371C60.4771 93.4251 60.3131 92.6842 60.3131 91.8145C60.3131 90.9421 60.4771 90.1999 60.8053 89.5879C61.1334 88.9759 61.58 88.5098 62.1451 88.1895C62.7102 87.8665 63.3482 87.7051 64.0592 87.7051C64.7649 87.7051 65.4003 87.8665 65.9654 88.1895C66.5331 88.5098 66.981 88.9759 67.3092 89.5879C67.6399 90.1999 67.8053 90.9421 67.8053 91.8145ZM66.0904 91.8145C66.0904 91.2493 66.0058 90.7728 65.8365 90.3848C65.6699 89.9967 65.4342 89.7025 65.1295 89.502C64.8248 89.3014 64.468 89.2012 64.0592 89.2012C63.6503 89.2012 63.2935 89.3014 62.9889 89.502C62.6842 89.7025 62.4472 89.9967 62.2779 90.3848C62.1113 90.7728 62.0279 91.2493 62.0279 91.8145C62.0279 92.3796 62.1113 92.8561 62.2779 93.2441C62.4472 93.6322 62.6842 93.9264 62.9889 94.127C63.2935 94.3275 63.6503 94.4277 64.0592 94.4277C64.468 94.4277 64.8248 94.3275 65.1295 94.127C65.4342 93.9264 65.6699 93.6322 65.8365 93.2441C66.0058 92.8561 66.0904 92.3796 66.0904 91.8145ZM69.0582 95.8145V87.8145H70.7496V94.4199H74.1793V95.8145H69.0582ZM76.8824 95.8145H75.0699L77.8316 87.8145H80.0113L82.7691 95.8145H80.9566L78.9527 89.6426H78.8902L76.8824 95.8145ZM76.7691 92.6699H81.0504V93.9902H76.7691V92.6699ZM82.4498 89.209V87.8145H89.0201V89.209H86.5709V95.8145H84.899V89.209H82.4498ZM90.1021 95.8145V87.8145H95.4928V89.209H91.7935V91.1152H95.2154V92.5098H91.7935V94.4199H95.5084V95.8145H90.1021Z" fill="white"/>
<path d="M36.9959 31.1987L34.7068 23.1987H36.5545L37.8787 28.7573H37.9451L39.4061 23.1987H40.9881L42.4451 28.769H42.5154L43.8397 23.1987H45.6873L43.3983 31.1987H41.7498L40.2264 25.9683H40.1639L38.6443 31.1987H36.9959ZM46.5926 31.1987V23.1987H48.284V26.4995H51.7176V23.1987H53.4051V31.1987H51.7176V27.894H48.284V31.1987H46.5926ZM56.491 23.1987V31.1987H54.7996V23.1987H56.491ZM57.8826 31.1987V23.1987H61.0389C61.6457 23.1987 62.1626 23.3146 62.5897 23.5464C63.0167 23.7756 63.3423 24.0946 63.5662 24.5034C63.7928 24.9097 63.9061 25.3784 63.9061 25.9097C63.9061 26.4409 63.7915 26.9097 63.5623 27.3159C63.3332 27.7222 63.0011 28.0386 62.5662 28.2651C62.1339 28.4917 61.6105 28.605 60.9959 28.605H58.9842V27.2495H60.7225C61.048 27.2495 61.3162 27.1935 61.5272 27.0815C61.7407 26.967 61.8996 26.8094 62.0037 26.6089C62.1105 26.4058 62.1639 26.1727 62.1639 25.9097C62.1639 25.644 62.1105 25.4123 62.0037 25.2144C61.8996 25.0138 61.7407 24.8589 61.5272 24.7495C61.3136 24.6375 61.0428 24.5815 60.7147 24.5815H59.574V31.1987H57.8826ZM65.0047 31.1987V23.1987H68.1609C68.7677 23.1987 69.2846 23.3146 69.7117 23.5464C70.1388 23.7756 70.4643 24.0946 70.6883 24.5034C70.9149 24.9097 71.0281 25.3784 71.0281 25.9097C71.0281 26.4409 70.9136 26.9097 70.6844 27.3159C70.4552 27.7222 70.1232 28.0386 69.6883 28.2651C69.256 28.4917 68.7326 28.605 68.118 28.605H66.1063V27.2495H67.8445C68.1701 27.2495 68.4383 27.1935 68.6492 27.0815C68.8628 26.967 69.0216 26.8094 69.1258 26.6089C69.2326 26.4058 69.2859 26.1727 69.2859 25.9097C69.2859 25.644 69.2326 25.4123 69.1258 25.2144C69.0216 25.0138 68.8628 24.8589 68.6492 24.7495C68.4357 24.6375 68.1649 24.5815 67.8367 24.5815H66.6961V31.1987H65.0047ZM72.1268 31.1987V23.1987H77.5174V24.5933H73.8182V26.4995H77.2401V27.894H73.8182V29.8042H77.533V31.1987H72.1268ZM81.6981 31.1987H78.8621V23.1987H81.7215C82.5262 23.1987 83.2189 23.3589 83.7996 23.6792C84.3804 23.9969 84.827 24.4539 85.1395 25.0503C85.4546 25.6466 85.6121 26.3602 85.6121 27.1909C85.6121 28.0243 85.4546 28.7404 85.1395 29.3394C84.827 29.9383 84.3777 30.3979 83.7918 30.7183C83.2085 31.0386 82.5106 31.1987 81.6981 31.1987ZM80.5535 29.7495H81.6277C82.1277 29.7495 82.5483 29.661 82.8895 29.4839C83.2332 29.3042 83.491 29.0269 83.6629 28.6519C83.8374 28.2743 83.9246 27.7873 83.9246 27.1909C83.9246 26.5998 83.8374 26.1167 83.6629 25.7417C83.491 25.3667 83.2345 25.0907 82.8934 24.9136C82.5522 24.7365 82.1317 24.6479 81.6317 24.6479H80.5535V29.7495Z" fill="white"/>
<path d="M49.3271 38.5537H47.6162C47.5849 38.3324 47.5211 38.1357 47.4248 37.9639C47.3284 37.7894 47.2047 37.641 47.0537 37.5186C46.9026 37.3962 46.7282 37.3024 46.5302 37.2373C46.3349 37.1722 46.1227 37.1396 45.8935 37.1396C45.4795 37.1396 45.1188 37.2425 44.8115 37.4482C44.5042 37.6514 44.2659 37.9482 44.0966 38.3389C43.9274 38.7269 43.8427 39.1982 43.8427 39.7529C43.8427 40.3232 43.9274 40.8024 44.0966 41.1904C44.2685 41.5785 44.5081 41.8714 44.8154 42.0693C45.1227 42.2673 45.4782 42.3662 45.8818 42.3662C46.1084 42.3662 46.318 42.3363 46.5107 42.2764C46.706 42.2165 46.8792 42.1292 47.0302 42.0146C47.1813 41.8975 47.3063 41.7555 47.4052 41.5889C47.5068 41.4222 47.5771 41.2321 47.6162 41.0186L49.3271 41.0264C49.2828 41.3936 49.1722 41.7477 48.9951 42.0889C48.8206 42.4274 48.5849 42.7308 48.2881 42.999C47.9938 43.2646 47.6422 43.4756 47.2334 43.6318C46.8271 43.7855 46.3675 43.8623 45.8545 43.8623C45.1409 43.8623 44.5029 43.7008 43.9404 43.3779C43.3805 43.055 42.9378 42.5876 42.6123 41.9756C42.2894 41.3636 42.1279 40.6227 42.1279 39.7529C42.1279 38.8805 42.292 38.1383 42.6201 37.5264C42.9482 36.9144 43.3935 36.4482 43.956 36.1279C44.5185 35.805 45.1513 35.6436 45.8545 35.6436C46.318 35.6436 46.7477 35.7087 47.1435 35.8389C47.542 35.9691 47.8948 36.1592 48.2021 36.4092C48.5094 36.6566 48.7594 36.96 48.9521 37.3193C49.1474 37.6787 49.2724 38.0902 49.3271 38.5537ZM50.54 43.7529V35.7529H53.6963C54.3004 35.7529 54.8161 35.861 55.2431 36.0771C55.6728 36.2907 55.9996 36.5941 56.2236 36.9873C56.4502 37.3779 56.5634 37.8376 56.5634 38.3662C56.5634 38.8975 56.4489 39.3545 56.2197 39.7373C55.9905 40.1175 55.6585 40.4092 55.2236 40.6123C54.7913 40.8154 54.2679 40.917 53.6533 40.917H51.54V39.5576H53.3799C53.7028 39.5576 53.971 39.5133 54.1845 39.4248C54.3981 39.3363 54.5569 39.2035 54.6611 39.0264C54.7679 38.8493 54.8213 38.6292 54.8213 38.3662C54.8213 38.1006 54.7679 37.8766 54.6611 37.6943C54.5569 37.512 54.3968 37.374 54.1806 37.2803C53.9671 37.1839 53.6976 37.1357 53.372 37.1357H52.2314V43.7529H50.54ZM54.8603 40.1123L56.8486 43.7529H54.9814L53.0361 40.1123H54.8603ZM57.7588 43.7529V35.7529H63.1494V37.1475H59.4502V39.0537H62.872V40.4482H59.4502V42.3584H63.165V43.7529H57.7588ZM65.873 43.7529H64.0605L66.8222 35.7529H69.0019L71.7597 43.7529H69.9472L67.9433 37.5811H67.8808L65.873 43.7529ZM65.7597 40.6084H70.041V41.9287H65.7597V40.6084ZM72.7226 35.7529H74.8086L77.0117 41.1279H77.1054L79.3086 35.7529H81.3945V43.7529H79.7539V38.5459H79.6875L77.6172 43.7139H76.5L74.4297 38.5264H74.3633V43.7529H72.7226V35.7529Z" fill="white"/>
<path d="M39.0613 54.2456C39.0301 53.9305 38.896 53.6857 38.659 53.5112C38.422 53.3368 38.1004 53.2495 37.6942 53.2495C37.4181 53.2495 37.185 53.2886 36.9949 53.3667C36.8048 53.4422 36.659 53.5477 36.5574 53.6831C36.4585 53.8185 36.409 53.9722 36.409 54.144C36.4038 54.2873 36.4337 54.4123 36.4988 54.519C36.5665 54.6258 36.659 54.7183 36.7762 54.7964C36.8934 54.8719 37.0288 54.9383 37.1824 54.9956C37.3361 55.0503 37.5001 55.0972 37.6746 55.1362L38.3934 55.3081C38.7423 55.3862 39.0626 55.4904 39.3543 55.6206C39.646 55.7508 39.8986 55.911 40.1121 56.1011C40.3257 56.2912 40.491 56.5151 40.6082 56.7729C40.728 57.0308 40.7892 57.3263 40.7918 57.6597C40.7892 58.1493 40.6642 58.5737 40.4168 58.9331C40.172 59.2899 39.8179 59.5672 39.3543 59.7651C38.8934 59.9604 38.3374 60.0581 37.6863 60.0581C37.0405 60.0581 36.478 59.9591 35.9988 59.7612C35.5223 59.5633 35.1499 59.2703 34.8817 58.8823C34.616 58.4917 34.4767 58.0086 34.4637 57.4331H36.1004C36.1186 57.7013 36.1955 57.9253 36.3309 58.105C36.4689 58.2821 36.6525 58.4162 36.8817 58.5073C37.1134 58.5959 37.3751 58.6401 37.6668 58.6401C37.9533 58.6401 38.202 58.5985 38.4129 58.5151C38.6264 58.4318 38.7918 58.3159 38.909 58.1675C39.0262 58.019 39.0848 57.8485 39.0848 57.6558C39.0848 57.4761 39.0314 57.325 38.9246 57.2026C38.8205 57.0802 38.6668 56.9761 38.4637 56.8901C38.2632 56.8042 38.0171 56.7261 37.7254 56.6558L36.8543 56.437C36.1798 56.2729 35.6473 56.0164 35.2567 55.6675C34.866 55.3185 34.672 54.8485 34.6746 54.2573C34.672 53.7729 34.8009 53.3498 35.0613 52.9878C35.3244 52.6258 35.685 52.3433 36.1434 52.1401C36.6017 51.937 37.1225 51.8354 37.7059 51.8354C38.2996 51.8354 38.8179 51.937 39.2606 52.1401C39.7059 52.3433 40.0522 52.6258 40.2996 52.9878C40.547 53.3498 40.6746 53.769 40.6824 54.2456H39.0613ZM41.6248 53.3394V51.9448H48.1951V53.3394H45.7459V59.9448H44.074V53.3394H41.6248ZM49.2772 59.9448V51.9448H54.6678V53.3394H50.9686V55.2456H54.3904V56.6401H50.9686V58.5503H54.6834V59.9448H49.2772ZM57.3914 59.9448H55.5789L58.3406 51.9448H60.5203L63.2781 59.9448H61.4656L59.4617 53.7729H59.3992L57.3914 59.9448ZM57.2781 56.8003H61.5594V58.1206H57.2781V56.8003ZM64.241 51.9448H66.327L68.5301 57.3198H68.6238L70.827 51.9448H72.9129V59.9448H71.2723V54.7378H71.2059L69.1356 59.9058H68.0184L65.9481 54.7183H65.8817V59.9448H64.241V51.9448ZM74.3065 59.9448V51.9448H79.6971V53.3394H75.9979V55.2456H79.4197V56.6401H75.9979V58.5503H79.7127V59.9448H74.3065ZM83.8777 59.9448H81.0418V51.9448H83.9012C84.7059 51.9448 85.3986 52.105 85.9793 52.4253C86.56 52.743 87.0067 53.2 87.3192 53.7964C87.6343 54.3927 87.7918 55.1063 87.7918 55.937C87.7918 56.7703 87.6343 57.4865 87.3192 58.0854C87.0067 58.6844 86.5574 59.144 85.9715 59.4644C85.3882 59.7847 84.6902 59.9448 83.8777 59.9448ZM82.7332 58.4956H83.8074C84.3074 58.4956 84.728 58.4071 85.0692 58.23C85.4129 58.0503 85.6707 57.7729 85.8426 57.3979C86.0171 57.0203 86.1043 56.5334 86.1043 55.937C86.1043 55.3459 86.0171 54.8628 85.8426 54.4878C85.6707 54.1128 85.4142 53.8368 85.0731 53.6597C84.7319 53.4826 84.3113 53.394 83.8113 53.394H82.7332V58.4956Z" fill="#2F1514"/>
<path d="M48.0017 64.4995H50.0876L52.2908 69.8745H52.3845L54.5876 64.4995H56.6736V72.4995H55.033V67.2925H54.9666L52.8962 72.4604H51.7791L49.7087 67.2729H49.6423V72.4995H48.0017V64.4995ZM59.7585 64.4995V72.4995H58.0671V64.4995H59.7585ZM61.1501 72.4995V64.4995H62.8416V71.105H66.2712V72.4995H61.1501ZM67.3914 72.4995V64.4995H69.0828V68.0269H69.1882L72.0671 64.4995H74.0945L71.1257 68.0815L74.1296 72.4995H72.1062L69.9148 69.2104L69.0828 70.2261V72.4995H67.3914Z" fill="#2F1514"/>
</svg>
