<svg width="150" height="150" viewBox="0 0 150 150" fill="none" xmlns="http://www.w3.org/2000/svg">
<path d="M30.2689 47.9998L30 54.9946L36.9948 55.2635L37.2637 48.2687L30.2689 47.9998Z" fill="#FCD276"/>
<path d="M17.1616 44.9998L13 50.6284L18.6286 54.79L22.7902 49.1614L17.1616 44.9998Z" fill="#FCD276"/>
<path d="M58.2715 50.5291L53.5291 45.3804L48.3803 50.1228L53.1228 55.2715L58.2715 50.5291Z" fill="#FCD276"/>
<path d="M79.614 48.681L73.3008 45.6572L70.277 51.9704L76.5902 54.9942L79.614 48.681Z" fill="#FCD276"/>
<path d="M95.8911 52.1487L91.1487 47L86 51.7424L90.7424 56.8912L95.8911 52.1487Z" fill="#FCD276"/>
<path d="M101 120.5L106 60H16L21 120L101 120.5Z" fill="#721E1C"/>
<path d="M21 120L22.3476 133.252H99.4783L101 120H21Z" fill="#2F1514"/>
<path d="M107.789 143.981H14.0383C12.861 143.981 11.8756 143.085 11.765 141.913L2.01029 38.497C1.89162 37.241 2.81295 36.1276 4.06895 36.0103C5.32895 35.893 6.43695 36.813 6.55562 38.069L16.1156 139.416H105.712L115.272 38.069C115.39 36.813 116.493 35.8903 117.758 36.0103C119.013 36.1276 119.936 37.241 119.817 38.497L110.061 141.913C109.95 143.085 108.966 143.981 107.789 143.981Z" fill="#2F1514"/>
<path d="M147.481 68.3906C144.92 64.0052 140.412 61.1732 134.444 60.2012C128.609 59.2532 122.285 60.3026 115.377 63.3573C115.062 68.3106 114.67 73.9852 114.194 79.9732C118.801 76.8252 123.958 74.0732 128.949 73.2839C130.597 73.0212 131.836 73.2266 132.641 73.8852C133.616 74.6826 134.068 76.1746 133.821 77.7812C133.329 80.9772 130.586 84.1932 127.82 87.2132C123.548 91.8759 118.265 96.1159 112.382 99.6652C111.765 105.449 111.07 111.121 110.293 116.345C112.341 115.405 114.332 114.419 116.23 113.432C124.5 109.136 139.492 99.9439 147.012 86.6399C150.336 80.7599 150.521 73.5972 147.481 68.3906Z" fill="#2F1514"/>
<path d="M34.7539 37.3008H33.043C33.0117 37.0794 32.9479 36.8828 32.8516 36.7109C32.7552 36.5365 32.6315 36.388 32.4805 36.2656C32.3294 36.1432 32.1549 36.0495 31.957 35.9844C31.7617 35.9193 31.5495 35.8867 31.3203 35.8867C30.9063 35.8867 30.5456 35.9896 30.2383 36.1953C29.931 36.3984 29.6927 36.6953 29.5234 37.0859C29.3542 37.474 29.2695 37.9453 29.2695 38.5C29.2695 39.0703 29.3542 39.5495 29.5234 39.9375C29.6953 40.3255 29.9349 40.6185 30.2422 40.8164C30.5495 41.0143 30.9049 41.1133 31.3086 41.1133C31.5352 41.1133 31.7448 41.0833 31.9375 41.0234C32.1328 40.9635 32.306 40.8763 32.457 40.7617C32.6081 40.6445 32.7331 40.5026 32.832 40.3359C32.9336 40.1693 33.0039 39.9792 33.043 39.7656L34.7539 39.7734C34.7096 40.1406 34.599 40.4948 34.4219 40.8359C34.2474 41.1745 34.0117 41.4779 33.7148 41.7461C33.4206 42.0117 33.069 42.2227 32.6602 42.3789C32.2539 42.5326 31.7943 42.6094 31.2813 42.6094C30.5677 42.6094 29.9297 42.4479 29.3672 42.125C28.8073 41.8021 28.3646 41.3346 28.0391 40.7227C27.7161 40.1107 27.5547 39.3698 27.5547 38.5C27.5547 37.6276 27.7188 36.8854 28.0469 36.2734C28.375 35.6615 28.8203 35.1953 29.3828 34.875C29.9453 34.5521 30.5781 34.3906 31.2813 34.3906C31.7448 34.3906 32.1745 34.4557 32.5703 34.5859C32.9688 34.7161 33.3216 34.9062 33.6289 35.1562C33.9362 35.4036 34.1862 35.707 34.3789 36.0664C34.5742 36.4258 34.6992 36.8372 34.7539 37.3008ZM37.1953 42.5H35.3828L38.1445 34.5H40.3242L43.082 42.5H41.2695L39.2656 36.3281H39.2031L37.1953 42.5ZM37.082 39.3555H41.3633V40.6758H37.082V39.3555ZM44.0449 42.5V34.5H47.2012C47.8053 34.5 48.321 34.6081 48.748 34.8242C49.1777 35.0378 49.5046 35.3411 49.7285 35.7344C49.9551 36.125 50.0684 36.5846 50.0684 37.1133C50.0684 37.6445 49.9538 38.1016 49.7246 38.4844C49.4954 38.8646 49.1634 39.1562 48.7285 39.3594C48.2962 39.5625 47.7728 39.6641 47.1582 39.6641H45.0449V38.3047H46.8848C47.2077 38.3047 47.4759 38.2604 47.6895 38.1719C47.903 38.0833 48.0618 37.9505 48.166 37.7734C48.2728 37.5964 48.3262 37.3763 48.3262 37.1133C48.3262 36.8477 48.2728 36.6237 48.166 36.4414C48.0618 36.2591 47.9017 36.1211 47.6855 36.0273C47.472 35.931 47.2025 35.8828 46.877 35.8828H45.7363V42.5H44.0449ZM48.3652 38.8594L50.3535 42.5H48.4863L46.541 38.8594H48.3652ZM54.0996 42.5H51.2637V34.5H54.123C54.9277 34.5 55.6204 34.6602 56.2012 34.9805C56.7819 35.2982 57.2285 35.7552 57.541 36.3516C57.8561 36.9479 58.0137 37.6615 58.0137 38.4922C58.0137 39.3255 57.8561 40.0417 57.541 40.6406C57.2285 41.2396 56.7793 41.6992 56.1934 42.0195C55.61 42.3398 54.9121 42.5 54.0996 42.5ZM52.9551 41.0508H54.0293C54.5293 41.0508 54.9499 40.9622 55.291 40.7852C55.6348 40.6055 55.8926 40.3281 56.0645 39.9531C56.2389 39.5755 56.3262 39.0885 56.3262 38.4922C56.3262 37.901 56.2389 37.418 56.0645 37.043C55.8926 36.668 55.6361 36.3919 55.2949 36.2148C54.9538 36.0378 54.5332 35.9492 54.0332 35.9492H52.9551V41.0508ZM60.1943 42.5H58.3818L61.1436 34.5H63.3232L66.0811 42.5H64.2686L62.2646 36.3281H62.2021L60.1943 42.5ZM60.0811 39.3555H64.3623V40.6758H60.0811V39.3555ZM67.0439 34.5H69.1299L71.333 39.875H71.4268L73.6299 34.5H75.7158V42.5H74.0752V37.293H74.0088L71.9385 42.4609H70.8213L68.751 37.2734H68.6846V42.5H67.0439V34.5ZM84.4609 38.5C84.4609 39.3724 84.2956 40.1146 83.9648 40.7266C83.6367 41.3385 83.1888 41.806 82.6211 42.1289C82.056 42.4492 81.4206 42.6094 80.7148 42.6094C80.0039 42.6094 79.3659 42.4479 78.8008 42.125C78.2357 41.8021 77.7891 41.3346 77.4609 40.7227C77.1328 40.1107 76.9688 39.3698 76.9688 38.5C76.9688 37.6276 77.1328 36.8854 77.4609 36.2734C77.7891 35.6615 78.2357 35.1953 78.8008 34.875C79.3659 34.5521 80.0039 34.3906 80.7148 34.3906C81.4206 34.3906 82.056 34.5521 82.6211 34.875C83.1888 35.1953 83.6367 35.6615 83.9648 36.2734C84.2956 36.8854 84.4609 37.6276 84.4609 38.5ZM82.7461 38.5C82.7461 37.9349 82.6615 37.4583 82.4922 37.0703C82.3255 36.6823 82.0898 36.388 81.7852 36.1875C81.4805 35.987 81.1237 35.8867 80.7148 35.8867C80.306 35.8867 79.9492 35.987 79.6445 36.1875C79.3398 36.388 79.1029 36.6823 78.9336 37.0703C78.7669 37.4583 78.6836 37.9349 78.6836 38.5C78.6836 39.0651 78.7669 39.5417 78.9336 39.9297C79.1029 40.3177 79.3398 40.612 79.6445 40.8125C79.9492 41.013 80.306 41.1133 80.7148 41.1133C81.1237 41.1133 81.4805 41.013 81.7852 40.8125C82.0898 40.612 82.3255 40.3177 82.4922 39.9297C82.6615 39.5417 82.7461 39.0651 82.7461 38.5ZM85.7139 34.5H87.7998L90.0029 39.875H90.0967L92.2998 34.5H94.3857V42.5H92.7451V37.293H92.6787L90.6084 42.4609H89.4912L87.4209 37.2734H87.3545V42.5H85.7139V34.5Z" fill="#FCD276"/>
<path d="M47.146 91.3008H45.4351C45.4038 91.0794 45.34 90.8828 45.2437 90.7109C45.1473 90.5365 45.0236 90.388 44.8726 90.2656C44.7215 90.1432 44.547 90.0495 44.3491 89.9844C44.1538 89.9193 43.9416 89.8867 43.7124 89.8867C43.2983 89.8867 42.9377 89.9896 42.6304 90.1953C42.3231 90.3984 42.0848 90.6953 41.9155 91.0859C41.7463 91.474 41.6616 91.9453 41.6616 92.5C41.6616 93.0703 41.7463 93.5495 41.9155 93.9375C42.0874 94.3255 42.327 94.6185 42.6343 94.8164C42.9416 95.0143 43.297 95.1133 43.7007 95.1133C43.9272 95.1133 44.1369 95.0833 44.3296 95.0234C44.5249 94.9635 44.6981 94.8763 44.8491 94.7617C45.0002 94.6445 45.1252 94.5026 45.2241 94.3359C45.3257 94.1693 45.396 93.9792 45.4351 93.7656L47.146 93.7734C47.1017 94.1406 46.991 94.4948 46.814 94.8359C46.6395 95.1745 46.4038 95.4779 46.1069 95.7461C45.8127 96.0117 45.4611 96.2227 45.0522 96.3789C44.646 96.5326 44.1864 96.6094 43.6733 96.6094C42.9598 96.6094 42.3218 96.4479 41.7593 96.125C41.1994 95.8021 40.7567 95.3346 40.4312 94.7227C40.1082 94.1107 39.9468 93.3698 39.9468 92.5C39.9468 91.6276 40.1108 90.8854 40.439 90.2734C40.7671 89.6615 41.2124 89.1953 41.7749 88.875C42.3374 88.5521 42.9702 88.3906 43.6733 88.3906C44.1369 88.3906 44.5666 88.4557 44.9624 88.5859C45.3608 88.7161 45.7137 88.9062 46.021 89.1562C46.3283 89.4036 46.5783 89.707 46.771 90.0664C46.9663 90.4258 47.0913 90.8372 47.146 91.3008ZM55.7104 92.5C55.7104 93.3724 55.5451 94.1146 55.2144 94.7266C54.8862 95.3385 54.4383 95.806 53.8706 96.1289C53.3055 96.4492 52.6701 96.6094 51.9644 96.6094C51.2534 96.6094 50.6154 96.4479 50.0503 96.125C49.4852 95.8021 49.0386 95.3346 48.7104 94.7227C48.3823 94.1107 48.2183 93.3698 48.2183 92.5C48.2183 91.6276 48.3823 90.8854 48.7104 90.2734C49.0386 89.6615 49.4852 89.1953 50.0503 88.875C50.6154 88.5521 51.2534 88.3906 51.9644 88.3906C52.6701 88.3906 53.3055 88.5521 53.8706 88.875C54.4383 89.1953 54.8862 89.6615 55.2144 90.2734C55.5451 90.8854 55.7104 91.6276 55.7104 92.5ZM53.9956 92.5C53.9956 91.9349 53.911 91.4583 53.7417 91.0703C53.575 90.6823 53.3394 90.388 53.0347 90.1875C52.73 89.987 52.3732 89.8867 51.9644 89.8867C51.5555 89.8867 51.1987 89.987 50.894 90.1875C50.5894 90.388 50.3524 90.6823 50.1831 91.0703C50.0164 91.4583 49.9331 91.9349 49.9331 92.5C49.9331 93.0651 50.0164 93.5417 50.1831 93.9297C50.3524 94.3177 50.5894 94.612 50.894 94.8125C51.1987 95.013 51.5555 95.1133 51.9644 95.1133C52.3732 95.1133 52.73 95.013 53.0347 94.8125C53.3394 94.612 53.575 94.3177 53.7417 93.9297C53.911 93.5417 53.9956 93.0651 53.9956 92.5ZM56.9634 96.5V88.5H62.2603V89.8945H58.6548V91.8008H61.9087V93.1953H58.6548V96.5H56.9634ZM63.3979 96.5V88.5H68.6948V89.8945H65.0894V91.8008H68.3433V93.1953H65.0894V96.5H63.3979ZM69.8325 96.5V88.5H75.2231V89.8945H71.5239V91.8008H74.9458V93.1953H71.5239V95.1055H75.2388V96.5H69.8325ZM76.5679 96.5V88.5H81.9585V89.8945H78.2593V91.8008H81.6812V93.1953H78.2593V95.1055H81.9741V96.5H76.5679Z" fill="white"/>
<path d="M24.4195 53.9999L18 56.791L20.7911 63.2105L27.2106 60.4194L24.4195 53.9999Z" fill="#FCD276"/>
<path d="M39.2689 54.9998L39 61.9946L45.9948 62.2635L46.2637 55.2687L39.2689 54.9998Z" fill="#FCD276"/>
<path d="M66.9311 56.1998L60.1997 54.2793L58.2792 61.0107L65.0106 62.9312L66.9311 56.1998Z" fill="#FCD276"/>
<path d="M83.4195 53.9999L77 56.791L79.7911 63.2105L86.2106 60.4194L83.4195 53.9999Z" fill="#FCD276"/>
<path d="M103.425 55.3313L96.4387 54.8926L95.9999 61.8788L102.986 62.3176L103.425 55.3313Z" fill="#FCD276"/>
<path d="M107.425 43.4388L100.439 43L100 49.9862L106.986 50.425L107.425 43.4388Z" fill="#FCD276"/>
</svg>
