<svg width="150" height="150" viewBox="0 0 150 150" fill="none" xmlns="http://www.w3.org/2000/svg">
<path d="M17 82L20.886 133H98.7844L102 82H17Z" fill="#721E1C"/>
<path d="M16.1473 51.3364C47.9398 53.5667 73.9289 56.0054 103.833 51.3364C108.544 17.2229 11.7206 17.8878 16.1473 51.3364Z" fill="#F0BA42"/>
<path d="M102.5 82L104 51H16L17.5 82H102.5Z" fill="#FCD276"/>
<path d="M106.789 143.981H13.0383C11.861 143.981 10.8756 143.085 10.765 141.913L1.01029 38.497C0.891623 37.241 1.81295 36.1276 3.06895 36.0103C4.32895 35.893 5.43695 36.813 5.55562 38.069L15.1156 139.416H104.712L114.272 38.069C114.39 36.813 115.493 35.8903 116.758 36.0103C118.013 36.1276 118.936 37.241 118.817 38.497L109.061 141.913C108.95 143.085 107.966 143.981 106.789 143.981Z" fill="#2F1514"/>
<path d="M146.481 68.3906C143.92 64.0052 139.412 61.1732 133.444 60.2012C127.609 59.2532 121.285 60.3026 114.377 63.3573C114.062 68.3106 113.67 73.9852 113.194 79.9732C117.801 76.8252 122.958 74.0732 127.949 73.2839C129.597 73.0212 130.836 73.2266 131.641 73.8852C132.616 74.6826 133.068 76.1746 132.821 77.7812C132.329 80.9772 129.586 84.1932 126.82 87.2132C122.548 91.8759 117.265 96.1159 111.382 99.6652C110.765 105.449 110.07 111.121 109.293 116.345C111.341 115.405 113.332 114.419 115.23 113.432C123.5 109.136 138.492 99.9439 146.012 86.6399C149.336 80.7599 149.521 73.5972 146.481 68.3906Z" fill="#2F1514"/>
<path d="M47.7539 106.301H46.043C46.0117 106.079 45.9479 105.883 45.8516 105.711C45.7552 105.536 45.6315 105.388 45.4805 105.266C45.3294 105.143 45.1549 105.049 44.957 104.984C44.7617 104.919 44.5495 104.887 44.3203 104.887C43.9063 104.887 43.5456 104.99 43.2383 105.195C42.931 105.398 42.6927 105.695 42.5234 106.086C42.3542 106.474 42.2695 106.945 42.2695 107.5C42.2695 108.07 42.3542 108.549 42.5234 108.937C42.6953 109.326 42.9349 109.618 43.2422 109.816C43.5495 110.014 43.9049 110.113 44.3086 110.113C44.5352 110.113 44.7448 110.083 44.9375 110.023C45.1328 109.964 45.306 109.876 45.457 109.762C45.6081 109.645 45.7331 109.503 45.832 109.336C45.9336 109.169 46.0039 108.979 46.043 108.766L47.7539 108.773C47.7096 109.141 47.599 109.495 47.4219 109.836C47.2474 110.174 47.0117 110.478 46.7148 110.746C46.4206 111.012 46.069 111.223 45.6602 111.379C45.2539 111.533 44.7943 111.609 44.2813 111.609C43.5677 111.609 42.9297 111.448 42.3672 111.125C41.8073 110.802 41.3646 110.335 41.0391 109.723C40.7161 109.111 40.5547 108.37 40.5547 107.5C40.5547 106.628 40.7188 105.885 41.0469 105.273C41.375 104.661 41.8203 104.195 42.3828 103.875C42.9453 103.552 43.5781 103.391 44.2813 103.391C44.7448 103.391 45.1745 103.456 45.5703 103.586C45.9688 103.716 46.3216 103.906 46.6289 104.156C46.9362 104.404 47.1862 104.707 47.3789 105.066C47.5742 105.426 47.6992 105.837 47.7539 106.301ZM56.3184 107.5C56.3184 108.372 56.153 109.115 55.8223 109.727C55.4941 110.339 55.0462 110.806 54.4785 111.129C53.9134 111.449 53.278 111.609 52.5723 111.609C51.8613 111.609 51.2233 111.448 50.6582 111.125C50.0931 110.802 49.6465 110.335 49.3184 109.723C48.9902 109.111 48.8262 108.37 48.8262 107.5C48.8262 106.628 48.9902 105.885 49.3184 105.273C49.6465 104.661 50.0931 104.195 50.6582 103.875C51.2233 103.552 51.8613 103.391 52.5723 103.391C53.278 103.391 53.9134 103.552 54.4785 103.875C55.0462 104.195 55.4941 104.661 55.8223 105.273C56.153 105.885 56.3184 106.628 56.3184 107.5ZM54.6035 107.5C54.6035 106.935 54.5189 106.458 54.3496 106.07C54.1829 105.682 53.9473 105.388 53.6426 105.188C53.3379 104.987 52.9811 104.887 52.5723 104.887C52.1634 104.887 51.8066 104.987 51.502 105.188C51.1973 105.388 50.9603 105.682 50.791 106.07C50.6243 106.458 50.541 106.935 50.541 107.5C50.541 108.065 50.6243 108.542 50.791 108.93C50.9603 109.318 51.1973 109.612 51.502 109.812C51.8066 110.013 52.1634 110.113 52.5723 110.113C52.9811 110.113 53.3379 110.013 53.6426 109.812C53.9473 109.612 54.1829 109.318 54.3496 108.93C54.5189 108.542 54.6035 108.065 54.6035 107.5ZM57.5713 111.5V103.5H62.8682V104.895H59.2627V106.801H62.5166V108.195H59.2627V111.5H57.5713ZM64.0059 111.5V103.5H69.3027V104.895H65.6973V106.801H68.9512V108.195H65.6973V111.5H64.0059ZM70.4404 111.5V103.5H75.8311V104.895H72.1318V106.801H75.5537V108.195H72.1318V110.105H75.8467V111.5H70.4404ZM77.1758 111.5V103.5H82.5664V104.895H78.8672V106.801H82.2891V108.195H78.8672V110.105H82.582V111.5H77.1758Z" fill="white"/>
<path d="M51.6953 44.5V36.5H57.0859V37.8945H53.3867V39.8008H56.8086V41.1953H53.3867V43.1055H57.1016V44.5H51.6953ZM63.7354 39.0859C63.6807 38.8958 63.6038 38.7279 63.5049 38.582C63.4059 38.4336 63.2848 38.3086 63.1416 38.207C63.001 38.1029 62.8395 38.0234 62.6572 37.9688C62.4775 37.9141 62.2783 37.8867 62.0596 37.8867C61.6507 37.8867 61.2913 37.9883 60.9814 38.1914C60.6742 38.3945 60.4346 38.6901 60.2627 39.0781C60.0908 39.4635 60.0049 39.9349 60.0049 40.4922C60.0049 41.0495 60.0895 41.5234 60.2588 41.9141C60.4281 42.3047 60.6676 42.6029 60.9775 42.8086C61.2874 43.0117 61.6533 43.1133 62.0752 43.1133C62.458 43.1133 62.7848 43.0456 63.0557 42.9102C63.3291 42.7721 63.5374 42.5781 63.6807 42.3281C63.8265 42.0781 63.8994 41.7826 63.8994 41.4414L64.2432 41.4922H62.1807V40.2187H65.5283V41.2266C65.5283 41.9297 65.3799 42.5339 65.083 43.0391C64.7861 43.5417 64.3773 43.9297 63.8564 44.2031C63.3356 44.474 62.7393 44.6094 62.0674 44.6094C61.3174 44.6094 60.6585 44.444 60.0908 44.1133C59.5231 43.7799 59.0804 43.3073 58.7627 42.6953C58.4476 42.0807 58.29 41.3516 58.29 40.5078C58.29 39.8594 58.3838 39.2812 58.5713 38.7734C58.7614 38.263 59.027 37.8307 59.3682 37.4766C59.7093 37.1224 60.1064 36.8529 60.5596 36.668C61.0127 36.4831 61.5036 36.3906 62.0322 36.3906C62.4854 36.3906 62.9072 36.457 63.2979 36.5898C63.6885 36.7201 64.0348 36.9049 64.3369 37.1445C64.6416 37.3841 64.8903 37.6693 65.083 38C65.2757 38.3281 65.3994 38.6901 65.4541 39.0859H63.7354ZM72.1035 39.0859C72.0488 38.8958 71.972 38.7279 71.873 38.582C71.7741 38.4336 71.653 38.3086 71.5098 38.207C71.3691 38.1029 71.2077 38.0234 71.0254 37.9688C70.8457 37.9141 70.6465 37.8867 70.4277 37.8867C70.0189 37.8867 69.6595 37.9883 69.3496 38.1914C69.0423 38.3945 68.8027 38.6901 68.6309 39.0781C68.459 39.4635 68.373 39.9349 68.373 40.4922C68.373 41.0495 68.4577 41.5234 68.627 41.9141C68.7962 42.3047 69.0358 42.6029 69.3457 42.8086C69.6556 43.0117 70.0215 43.1133 70.4434 43.1133C70.8262 43.1133 71.153 43.0456 71.4238 42.9102C71.6973 42.7721 71.9056 42.5781 72.0488 42.3281C72.1947 42.0781 72.2676 41.7826 72.2676 41.4414L72.6113 41.4922H70.5488V40.2187H73.8965V41.2266C73.8965 41.9297 73.748 42.5339 73.4512 43.0391C73.1543 43.5417 72.7454 43.9297 72.2246 44.2031C71.7038 44.474 71.1074 44.6094 70.4355 44.6094C69.6855 44.6094 69.0267 44.444 68.459 44.1133C67.8913 43.7799 67.4486 43.3073 67.1309 42.6953C66.8158 42.0807 66.6582 41.3516 66.6582 40.5078C66.6582 39.8594 66.752 39.2812 66.9395 38.7734C67.1296 38.263 67.3952 37.8307 67.7363 37.4766C68.0775 37.1224 68.4746 36.8529 68.9277 36.668C69.3809 36.4831 69.8717 36.3906 70.4004 36.3906C70.8535 36.3906 71.2754 36.457 71.666 36.5898C72.0566 36.7201 72.403 36.9049 72.7051 37.1445C73.0098 37.3841 73.2585 37.6693 73.4512 38C73.6439 38.3281 73.7676 38.6901 73.8223 39.0859H72.1035Z" fill="white"/>
<path d="M40.8862 59.3008H39.1753C39.144 59.0794 39.0802 58.8828 38.9839 58.7109C38.8875 58.5365 38.7638 58.388 38.6128 58.2656C38.4618 58.1432 38.2873 58.0495 38.0894 57.9844C37.894 57.9193 37.6818 57.8867 37.4526 57.8867C37.0386 57.8867 36.6779 57.9896 36.3706 58.1953C36.0633 58.3984 35.825 58.6953 35.6558 59.0859C35.4865 59.474 35.4019 59.9453 35.4019 60.5C35.4019 61.0703 35.4865 61.5495 35.6558 61.9375C35.8276 62.3255 36.0672 62.6185 36.3745 62.8164C36.6818 63.0143 37.0373 63.1133 37.4409 63.1133C37.6675 63.1133 37.8771 63.0833 38.0698 63.0234C38.2651 62.9635 38.4383 62.8763 38.5894 62.7617C38.7404 62.6445 38.8654 62.5026 38.9644 62.3359C39.0659 62.1693 39.1362 61.9792 39.1753 61.7656L40.8862 61.7734C40.842 62.1406 40.7313 62.4948 40.5542 62.8359C40.3797 63.1745 40.144 63.4779 39.8472 63.7461C39.5529 64.0117 39.2013 64.2227 38.7925 64.3789C38.3862 64.5326 37.9266 64.6094 37.4136 64.6094C36.7 64.6094 36.062 64.4479 35.4995 64.125C34.9396 63.8021 34.4969 63.3346 34.1714 62.7227C33.8485 62.1107 33.687 61.3698 33.687 60.5C33.687 59.6276 33.8511 58.8854 34.1792 58.2734C34.5073 57.6615 34.9526 57.1953 35.5151 56.875C36.0776 56.5521 36.7104 56.3906 37.4136 56.3906C37.8771 56.3906 38.3068 56.4557 38.7026 56.5859C39.1011 56.7161 39.4539 56.9062 39.7612 57.1562C40.0685 57.4036 40.3185 57.707 40.5112 58.0664C40.7065 58.4258 40.8315 58.8372 40.8862 59.3008ZM49.4507 60.5C49.4507 61.3724 49.2853 62.1146 48.9546 62.7266C48.6265 63.3385 48.1785 63.806 47.6108 64.1289C47.0457 64.4492 46.4103 64.6094 45.7046 64.6094C44.9937 64.6094 44.3556 64.4479 43.7905 64.125C43.2254 63.8021 42.7788 63.3346 42.4507 62.7227C42.1226 62.1107 41.9585 61.3698 41.9585 60.5C41.9585 59.6276 42.1226 58.8854 42.4507 58.2734C42.7788 57.6615 43.2254 57.1953 43.7905 56.875C44.3556 56.5521 44.9937 56.3906 45.7046 56.3906C46.4103 56.3906 47.0457 56.5521 47.6108 56.875C48.1785 57.1953 48.6265 57.6615 48.9546 58.2734C49.2853 58.8854 49.4507 59.6276 49.4507 60.5ZM47.7358 60.5C47.7358 59.9349 47.6512 59.4583 47.4819 59.0703C47.3153 58.6823 47.0796 58.388 46.7749 58.1875C46.4702 57.987 46.1134 57.8867 45.7046 57.8867C45.2957 57.8867 44.939 57.987 44.6343 58.1875C44.3296 58.388 44.0926 58.6823 43.9233 59.0703C43.7567 59.4583 43.6733 59.9349 43.6733 60.5C43.6733 61.0651 43.7567 61.5417 43.9233 61.9297C44.0926 62.3177 44.3296 62.612 44.6343 62.8125C44.939 63.013 45.2957 63.1133 45.7046 63.1133C46.1134 63.1133 46.4702 63.013 46.7749 62.8125C47.0796 62.612 47.3153 62.3177 47.4819 61.9297C47.6512 61.5417 47.7358 61.0651 47.7358 60.5ZM57.395 56.5V64.5H55.9341L52.4536 59.4648H52.395V64.5H50.7036V56.5H52.188L55.6411 61.5312H55.7114V56.5H57.395ZM61.6284 64.5H58.7925V56.5H61.6519C62.4565 56.5 63.1493 56.6602 63.73 56.9805C64.3107 57.2982 64.7573 57.7552 65.0698 58.3516C65.3849 58.9479 65.5425 59.6615 65.5425 60.4922C65.5425 61.3255 65.3849 62.0417 65.0698 62.6406C64.7573 63.2396 64.3081 63.6992 63.7222 64.0195C63.1388 64.3398 62.4409 64.5 61.6284 64.5ZM60.4839 63.0508H61.5581C62.0581 63.0508 62.4787 62.9622 62.8198 62.7852C63.1636 62.6055 63.4214 62.3281 63.5933 61.9531C63.7677 61.5755 63.855 61.0885 63.855 60.4922C63.855 59.901 63.7677 59.418 63.5933 59.043C63.4214 58.668 63.1649 58.3919 62.8237 58.2148C62.4826 58.0378 62.062 57.9492 61.562 57.9492H60.4839V63.0508ZM66.7954 64.5V56.5H72.186V57.8945H68.4868V59.8008H71.9087V61.1953H68.4868V63.1055H72.2017V64.5H66.7954ZM80.2222 56.5V64.5H78.7612L75.2808 59.4648H75.2222V64.5H73.5308V56.5H75.0151L78.4683 61.5312H78.5386V56.5H80.2222ZM85.9595 58.8008C85.9282 58.4857 85.7941 58.2409 85.5571 58.0664C85.3201 57.8919 84.9985 57.8047 84.5923 57.8047C84.3162 57.8047 84.0832 57.8437 83.8931 57.9219C83.703 57.9974 83.5571 58.1029 83.4556 58.2383C83.3566 58.3737 83.3071 58.5273 83.3071 58.6992C83.3019 58.8424 83.3319 58.9674 83.397 59.0742C83.4647 59.181 83.5571 59.2734 83.6743 59.3516C83.7915 59.4271 83.9269 59.4935 84.0806 59.5508C84.2342 59.6055 84.3983 59.6523 84.5728 59.6914L85.2915 59.8633C85.6405 59.9414 85.9608 60.0456 86.2524 60.1758C86.5441 60.306 86.7967 60.4661 87.0103 60.6562C87.2238 60.8464 87.3892 61.0703 87.5063 61.3281C87.6261 61.5859 87.6873 61.8815 87.6899 62.2148C87.6873 62.7044 87.5623 63.1289 87.3149 63.4883C87.0701 63.8451 86.716 64.1224 86.2524 64.3203C85.7915 64.5156 85.2355 64.6133 84.5845 64.6133C83.9386 64.6133 83.3761 64.5143 82.897 64.3164C82.4204 64.1185 82.048 63.8255 81.7798 63.4375C81.5142 63.0469 81.3748 62.5638 81.3618 61.9883H82.9985C83.0168 62.2565 83.0936 62.4805 83.229 62.6602C83.367 62.8372 83.5506 62.9714 83.7798 63.0625C84.0116 63.151 84.2733 63.1953 84.5649 63.1953C84.8514 63.1953 85.1001 63.1536 85.311 63.0703C85.5246 62.987 85.6899 62.8711 85.8071 62.7227C85.9243 62.5742 85.9829 62.4036 85.9829 62.2109C85.9829 62.0312 85.9295 61.8802 85.8228 61.7578C85.7186 61.6354 85.5649 61.5312 85.3618 61.4453C85.1613 61.3594 84.9152 61.2812 84.6235 61.2109L83.7524 60.9922C83.078 60.8281 82.5454 60.5716 82.1548 60.2227C81.7642 59.8737 81.5701 59.4036 81.5728 58.8125C81.5701 58.3281 81.6991 57.9049 81.9595 57.543C82.2225 57.181 82.5832 56.8984 83.0415 56.6953C83.4998 56.4922 84.0207 56.3906 84.604 56.3906C85.1978 56.3906 85.716 56.4922 86.1587 56.6953C86.604 56.8984 86.9504 57.181 87.1978 57.543C87.4451 57.9049 87.5728 58.3242 87.5806 58.8008H85.9595ZM88.8276 64.5V56.5H94.2183V57.8945H90.519V59.8008H93.9409V61.1953H90.519V63.1055H94.2339V64.5H88.8276Z" fill="white"/>
<path d="M51.2085 69.5H53.2944L55.4976 74.875H55.5913L57.7944 69.5H59.8804V77.5H58.2397V72.293H58.1733L56.103 77.4609H54.9858L52.9155 72.2734H52.8491V77.5H51.2085V69.5ZM62.9653 69.5V77.5H61.2739V69.5H62.9653ZM64.3569 77.5V69.5H66.0483V76.1055H69.478V77.5H64.3569ZM70.5981 77.5V69.5H72.2896V73.0273H72.395L75.2739 69.5H77.3013L74.3325 73.082L77.3364 77.5H75.313L73.1216 74.2109L72.2896 75.2266V77.5H70.5981Z" fill="white"/>
</svg>
